<?xml version="1.0" standalone="no"?>
<!DOCTYPE svg PUBLIC "-//W3C//DTD SVG 1.1//EN" "http://www.w3.org/Graphics/SVG/1.1/DTD/svg11.dtd" >
<!--
2013-9-30: Created.
-->
<svg>
<metadata>
Created by iconfont
</metadata>
<defs>

<font id="iconfont" horiz-adv-x="1024" >
  <font-face
    font-family="iconfont"
    font-weight="500"
    font-stretch="normal"
    units-per-em="1024"
    ascent="896"
    descent="-128"
  />
    <missing-glyph />
    
    <glyph glyph-name="shijian" unicode="&#58902;" d="M512 768c-211.968 0-384-172.032-384-384 0-211.968 172.032-384 384-384 211.968 0 384 172.032 384 384C896 595.968 723.968 768 512 768zM512 48.128c-185.344 0-335.872 150.528-335.872 335.872 0 185.344 150.528 335.872 335.872 335.872 185.344 0 335.872-150.528 335.872-335.872C847.872 198.656 697.344 48.128 512 48.128zM536.064 393.728 536.064 652.8c0 13.312-10.752 24.064-24.064 24.064-13.312 0-24.064-10.752-24.064-24.064L487.936 384c0-6.144 2.56-12.288 7.168-16.896l147.968-147.968c4.608-4.608 10.752-7.168 16.896-7.168 6.144 0 12.288 2.56 16.896 7.168 9.216 9.216 9.216 24.576 0 33.792L536.064 393.728z"  horiz-adv-x="1024" />

    
    <glyph glyph-name="dingwei" unicode="&#58910;" d="M512-63.469288c-10.69969 0-16.60519 1.283226-20.36584 5.689582-2.261507 2.64934-229.644237 272.535093-290.237267 403.232784-21.890566 46.818305-33.44267 97.655134-33.44267 147.265018 0 187.090049 154.331971 339.226005 344.045777 339.226005s344.045777-153.187915 344.045777-341.429183c0-56.871265-10.660804-99.841939-36.789904-148.300604C747.006362 208.324932 534.795169-54.618713 532.675902-57.24247c-2.532683-3.166109-7.055696-6.227842-20.145829-6.227842L512-63.470311zM512 623.596913c-72.959685 0-132.325771-59.365062-132.325771-132.325771S439.040315 358.945371 512 358.945371s132.325771 59.365062 132.325771 132.325771S584.959685 623.596913 512 623.596913z"  horiz-adv-x="1024" />

    
    <glyph glyph-name="buoumaotubiao23" unicode="&#58901;" d="M524.474182-128l-24.901818 0-6.958545 10.053818C481.652364-102.097455 223.837091 271.592727 187.485091 355.025455c-37.026909 84.968727-43.52 110.917818-43.52 173.428364C143.965091 731.136 308.852364 896 511.511273 896c203.682909 0 368.546909-164.864 368.546909-367.546182 0-62.533818-6.493091-88.459636-43.52-173.428364-36.375273-83.432727-294.144-457.099636-305.082182-472.971636L524.474182-128zM512.512 849.454545C334.498909 849.454545 190.510545 705.442909 190.510545 528.453818c0-56.064 4.817455-74.891636 39.656727-154.833455 29.090909-66.792727 220.485818-348.020364 281.856-437.620364C573.416727 25.6 764.741818 306.827636 793.832727 373.620364c34.839273 79.965091 39.656727 98.769455 39.656727 154.833455C833.489455 705.442909 689.501091 849.454545 512.512 849.454545zM512 330.635636c-93.835636 0-170.193455 76.334545-170.193455 170.193455S418.164364 670.999273 512 670.999273s170.193455-76.334545 170.193455-170.193455S605.835636 330.635636 512 330.635636zM512 624.453818c-68.189091 0-123.648-55.458909-123.648-123.648S443.810909 377.181091 512 377.181091s123.648 55.458909 123.648 123.648S580.189091 624.453818 512 624.453818z"  horiz-adv-x="1024" />

    
    <glyph glyph-name="icon_face_off" unicode="&#58881;" d="M512 853.333333c260.266667 0 469.333333-209.066667 469.333333-469.333333s-209.066667-469.333333-469.333333-469.333333S42.666667 123.733333 42.666667 384 251.733333 853.333333 512 853.333333m0 42.666667C230.4 896 0 665.6 0 384s230.4-512 512-512 512 230.4 512 512S793.6 896 512 896zM264.533333 605.866667l-34.133333-34.133334 115.2-119.466666 38.4 38.4-119.466667 115.2zM345.6 529.066667l-115.2-115.2 34.133333-38.4L384 490.666667l-38.4 38.4zM716.8 490.666667m-64 0a64 64 0 1 1 128 0 64 64 0 1 1-128 0ZM768 320c-12.8 0-21.333333-8.533333-21.333333-21.333333 0-128-106.666667-234.666667-234.666667-234.666667S277.333333 170.666667 277.333333 298.666667c0 12.8-8.533333 21.333333-21.333333 21.333333s-21.333333-8.533333-21.333333-21.333333c0-170.666667 123.733333-277.333333 277.333333-277.333334s277.333333 106.666667 277.333333 277.333334c0 12.8-8.533333 21.333333-21.333333 21.333333z"  horiz-adv-x="1024" />

    
    <glyph glyph-name="order-up" unicode="&#59078;" d="M514-128c282.8 0 512 229.3 512 512s-229.2 512-512 512c-282.7 0-512-229.3-512-512s229.3-512 512-512zM513.9 70.6c-35.4 0-64 28.7-64 64s28.7 64 64 64 64-28.7 64-64c0-35.4-28.6-64-64-64zM513.9 282.2c-35.4 0-64 28.7-64 64 0 35.4 28.7 64 64 64s64-28.7 64-64c0-35.4-28.6-64-64-64zM525 680.9l298.6-298.6-59.1-59.1-242.2 242.1-261.8-238.3-56.3 61.8 320.8 292.1z"  horiz-adv-x="1026" />

    
    <glyph glyph-name="bofang" unicode="&#58927;" d="M396.55936 221.568c0.09216 0.1792 0.11264 0.0256 0.2048 0.30208-0.15872 0.5376-0.25088 0.47616-0.36352 0.66048l0.15872-0.96256zM512 816.35328c-238.77632 0-432.35328-193.58208-432.35328-432.35328S273.22368-48.35328 512-48.35328s432.35328 193.58208 432.35328 432.35328S750.77632 816.35328 512 816.35328z m0-819.2c-213.65248 0-386.84672 173.19424-386.84672 386.84672S298.34752 770.84672 512 770.84672 898.84672 597.65248 898.84672 384 725.65248-2.84672 512-2.84672z m187.04896 410.92096l0.2048-0.13312c4.04992-2.61632 6.50752-4.37248 6.87616-4.9408l-6.87616 4.9408c-42.61888 27.55584-270.81216 158.1056-278.27712 158.1056-7.10144 0-13.19936-3.46112-17.38752-8.55552-2.80064-2.75456-6.39488-10.55744-7.48544-14.62784-1.24928-4.57728-0.7936-316.84608 0.64-320.98816 3.25632-12.15488 19.31776-21.7088 31.47264-18.4576a22.44608 22.44608 0 0 1 7.59808 4.352l263.96672 151.53152c10.57792 2.8416 16.95232 12.75904 16.3584 23.27552 0.5888 10.5472-6.50752 22.65088-17.09056 25.4976z"  horiz-adv-x="1024" />

    
    <glyph glyph-name="gouxuan" unicode="&#58993;" d="M435.17938 191.783187L249.564939 377.398652l52.343135 52.343135 133.271306-132.899846L716.942649 578.60521l52.344159-52.714596-334.107428-334.107427zM509.425362-56.577321c-59.628052 0-117.484761 11.68411-171.96456 34.727943-52.609195 22.25077-99.851149 54.101175-140.413984 94.665033-40.562834 40.563858-72.41324 87.805812-94.665033 140.413983C79.338976 267.709437 67.654866 325.566146 67.654866 385.194198s11.68411 117.484761 34.726919 171.96456c22.251793 52.609195 54.102199 99.851149 94.665033 140.413984 40.563858 40.563858 87.805812 72.41324 140.413984 94.665033C391.9406 815.280584 449.798333 826.964694 509.425362 826.964694s117.485785-11.68411 171.965583-34.726919c52.609195-22.251793 99.851149-54.101175 140.415007-94.665033 40.562834-40.562834 72.41324-87.805812 94.664009-140.413984 23.043832-54.479799 34.727942-112.337531 34.727943-171.96456s-11.68411-117.484761-34.727943-171.965583c-22.25077-52.608172-54.101175-99.850126-94.664009-140.413983-40.563858-40.563858-87.805812-72.414263-140.415007-94.665033-54.479799-23.042809-112.337531-34.726919-171.965583-34.72692z m0 832.376705c-215.380372 0-390.605186-175.224814-390.605186-390.605186 0-215.381395 175.224814-390.606209 390.605186-390.606209 215.381395 0 390.606209 175.224814 390.606209 390.606209 0 215.380372-175.224814 390.605186-390.606209 390.605186z"  horiz-adv-x="1024" />

    
    <glyph glyph-name="xihuan" unicode="&#58988;" d="M467.399111 8.533333l21.731556-19.911111a34.816 34.816 0 0 1 45.738666 0l21.731556 19.911111c300.885333 273.408 382.065778 374.897778 382.065778 516.551111 0 129.422222-96.711111 228.693333-221.866667 228.693334-68.551111 0-138.012444-33.336889-182.840889-87.836445L512 639.317333l-21.959111 26.624C445.155556 720.440889 375.751111 753.777778 307.2 753.777778c-125.155556 0-221.866667-99.271111-221.866667-228.693334 0-141.653333 81.180444-243.143111 382.065778-516.551111zM28.444444 525.084444C28.444444 685.568 150.186667 810.666667 307.2 810.666667c75.093333 0 150.016-31.516444 204.8-84.764445 54.784 53.248 129.706667 84.764444 204.8 84.764445 157.013333 0 278.755556-125.098667 278.755556-285.582223 0-165.148444-86.186667-272.839111-400.554667-558.535111l-21.617778-19.854222a91.648 91.648 0 0 0-122.766222 0l-21.504 19.797333C114.631111 252.245333 28.444444 359.992889 28.444444 525.141333z"  horiz-adv-x="1024" />

    
    <glyph glyph-name="bacha" unicode="&#58979;" d="M990.796493-127.999291a35.454154 35.454154 0 0 0-25.17245 10.281705L10.489129 835.290079A35.454154 35.454154 0 1 0 60.834028 885.634978l954.780372-953.007665a35.454154 35.454154 0 0 0-25.172449-60.626604zM35.661578-127.999291a35.454154 35.454154 0 0 0-25.172449 60.626604L965.624043 885.634978a35.454154 35.454154 0 0 0 49.990357-50.344899L60.834028-117.363045a35.454154 35.454154 0 0 0-25.17245-10.636246z"  horiz-adv-x="1026" />

    
    <glyph glyph-name="ren" unicode="&#58889;" d="M648.809 343.636c70.358 44.113 117.51 121.793 117.51 210.963 0 137.79-111.704 249.495-249.494 249.495-137.799 0-249.494-111.704-249.494-249.495 0-89.171 47.151-166.85 117.51-210.963-158.738-54.964-273.448-204.152-273.448-381.59 0-17.227 13.959-31.186 31.186-31.186h748.493c17.226 0 31.186 13.958 31.186 31.186-0.002 177.438-114.713 326.626-273.45 381.59zM329.7 554.599c0 103.345 83.778 187.123 187.123 187.123S703.947 657.944 703.947 554.6s-83.778-187.122-187.123-187.122S329.7 451.255 329.7 554.599z m187.123-249.494c178.779 0 323.93-137.266 339.919-311.874H176.905c15.99 174.608 161.14 311.874 339.919 311.874z"  horiz-adv-x="1024" />

    
    <glyph glyph-name="rili" unicode="&#58699;" d="M352 716.3c17.6 0 32.1 14.4 32.1 32.1V847.1c0 17.6-14.4 32.1-32.1 32.1-17.6 0-32.1-14.4-32.1-32.1v-98.7c0-17.6 14.4-32.1 32.1-32.1zM511.3 716.3c17.6 0 32 14.4 32 32v99c0 17.6-14.4 32-32 32s-32-14.4-32-32v-99c0-17.6 14.4-32 32-32zM672.2 716.3c17.7 0 32.1 14.4 32.1 32.1V847.1c0 17.6-14.4 32.1-32.1 32.1-17.6 0-32.1-14.4-32.1-32.1v-98.7c0-17.6 14.4-32.1 32.1-32.1zM474.9 158.9c0-17.7 14.5-32.1 32.1-32.1 17.7 0 32.1 14.5 32.1 32.1 0 0 1.2 62.4 10 108.4 8.1 33.2 32 72.4 52.4 103.1 7.7 11.6 15.5 18.7 20.8 27.1 3 4.2 5.1 9.1 5.8 14.5l0.3 1.8v1.4 1.1c0 17.7-14.5 32.1-32.1 32.1H427.8c-17.7 0-32.1-14.5-32.1-32.1 0-17.7 14.5-32.1 32.1-32.1h108c-18.5-27.9-42-70.3-50.9-116.9-10.6-55.5-10-108.4-10-108.4zM895.3 191.5a32.2 32.1 0 1 1 64.4 0 32.2 32.1 0 1 1-64.4 0ZM959.6 64.4c-0.5 17.1-14.7 30.9-32.1 30.9-17.5 0-31.7-13.8-32.2-31.1h-0.2c-0.5-34.8-29.1-63.9-64-63.9H769l-292 0.1-285-0.1c-35.2 0-64 29.6-64 64.8V576.3c0.6 0 1.3-0.1 1.9-0.1h765.2V320h0.1v-0.2c0-17.7 14.4-32.1 32.2-32.1s32.2 14.4 32.2 32.1v0.2h0.1V704c0.1 70.4-57.5 128-127.9 128h-27.9c-0.9 0.1-1.7 0.1-2.6 0.1-17.8 0-32.2-14.4-32.2-32.1s14.4-32.1 32.2-32.1c1.3 0 2.6 0.1 3.9 0.2h25.9c35.2 0 64-28.8 64-64V640H129.9c-0.6 0-1.3 0-1.9-0.1v64.4c0 35.2 28.8 64 64 64h28c1.3-0.2 2.6-0.2 3.9-0.2 17.8 0 32.2 14.4 32.2 32.1s-14.4 32.1-32.2 32.1c-0.9 0-1.8 0-2.6-0.1h-29.2c-70.4 0-128-57.6-128-128v-639.7c0-70.4 57.6-128 128-128h639.7c70.4 0 127.9 57.5 128 127.9h-0.2z"  horiz-adv-x="1024" />

    
    <glyph glyph-name="bao" unicode="&#58895;" d="M170.666667 896h682.666666c93.866667 0 170.666667-76.8 170.666667-170.666667v-682.666666c0-93.866667-76.8-170.666667-170.666667-170.666667H170.666667c-93.866667 0-170.666667 76.8-170.666667 170.666667V725.333333c0 93.866667 76.8 170.666667 170.666667 170.666667zM174.933333 584.533333c0-68.266667-8.533333-140.8-17.066666-209.066666l59.733333-17.066667c12.8 72.533333 17.066667 145.066667 17.066667 221.866667l-59.733334 4.266666z m85.333334 145.066667v-277.333333c0-174.933333-34.133333-298.666667-98.133334-379.733334l59.733334-51.2c42.666667 59.733333 72.533333 128 89.6 200.533334 17.066667-29.866667 34.133333-68.266667 59.733333-110.933334l42.666667 68.266667c-29.866667 46.933333-59.733333 89.6-89.6 123.733333 4.266667 51.2 8.533333 102.4 8.533333 149.333334v12.8c34.133333 29.866667 68.266667 64 93.866667 102.4L384 622.933333c-17.066667-21.333333-34.133333-46.933333-51.2-68.266666V729.6H260.266667z m187.733333-12.8v-213.333333h72.533333v-34.133334H426.666667v-55.466666h98.133333v-34.133334h-128v-59.733333h106.666667c-34.133333-25.6-68.266667-46.933333-110.933334-55.466667l38.4-64c17.066667 8.533333 34.133333 21.333333 51.2 29.866667 17.066667-12.8 38.4-29.866667 51.2-51.2l42.666667 42.666667c-12.8 17.066667-29.866667 29.866667-46.933333 42.666666 17.066667 17.066667 29.866667 34.133333 42.666666 51.2h119.466667c8.533333-17.066667 21.333333-34.133333 34.133333-46.933333-17.066667-12.8-29.866667-29.866667-51.2-38.4l34.133334-46.933333c21.333333 12.8 38.4 29.866667 59.733333 42.666666 17.066667-12.8 38.4-29.866667 55.466667-42.666666l46.933333 55.466666c-42.666667 17.066667-81.066667 42.666667-110.933333 72.533334h98.133333v59.733333h-110.933333v34.133333h93.866666V469.333333h-93.866666v34.133334h72.533333v213.333333h-371.2z m145.066667-337.066667v34.133334h93.866666v-34.133334h-93.866666z m93.866666 89.6h-93.866666v34.133334h93.866666v-34.133334z m72.533334 85.333334h-238.933334v29.866666h238.933334V554.666667z m-243.2 76.8v29.866666h238.933333v-29.866666h-238.933333z m89.6-605.866667c29.866667-4.266667 59.733333 17.066667 68.266666 46.933333V298.666667H597.333333v-192c0-8.533333-4.266667-17.066667-12.8-17.066667h-4.266666c-17.066667 0-34.133333 0-51.2 4.266667l17.066666-68.266667h59.733334z m-42.666667 157.866667c-51.2-25.6-106.666667-46.933333-162.133333-59.733334l29.866666-68.266666c51.2 17.066667 102.4 42.666667 149.333334 72.533333l-17.066667 55.466667z m149.333333-8.533334l-34.133333-51.2c51.2-21.333333 98.133333-46.933333 140.8-81.066666l42.666667 64c-51.2 25.6-98.133333 51.2-149.333334 68.266666z"  horiz-adv-x="1024" />

    
    <glyph glyph-name="huifu1-copy" unicode="&#58634;" d="M512 892.18844445C231.33297778 892.18844445 3.80814222 664.66588445 3.80814222 384S231.33297778-124.19185777999996 511.99886222-124.19185777999996 1020.18958222 103.33297777999996 1020.18958222 384 792.66474667 892.18958222 512 892.18958222z m271.71953778-610.07985778c0-37.50912-30.41621333-67.92533333-67.92988445-67.92533334H681.82471111v-101.89255111l-135.85976889 101.89255111H308.20920889c-37.51253333 0-67.92988445 30.41621333-67.92988444 67.92533334V587.7816888899999c0 37.51480889 30.41621333 67.92760889 67.92988444 67.92760889h407.58044444c37.51253333 0 67.92988445-30.4128 67.92988445-67.92760889v-305.67310222zM704.60643555 609.63043555H319.39242667c-26.58190222 0-32.10126222-7.71072-32.10126222-32.10012444V288.63146667c0-24.38712889 5.52049778-32.10126222 32.10126222-32.10126222h256.80782222l64.2048-64.19797334v64.19797334h64.20138666c26.58304 0 32.10126222 7.71413333 32.10126223 32.10126222V577.53144889c0 24.38940445-5.51822222 32.09898667-32.10126223 32.09898666z m-56.74666666-273.85742222H376.13909333V384h271.72067556v-48.22812445z m0 136.21475556H376.13909333v47.86631111h271.72067556v-47.86631111z"  horiz-adv-x="1024" />

    
    <glyph glyph-name="tongzhi" unicode="&#58882;" d="M194.684878-58.318049c-36.289561 69.632-33.916878 151.352195-0.999024 222.382829l-106.421074 184.344976c-61.415024 106.371122-30.670049 243.861854 66.185366 328.129561l-2.397658 4.145951c-27.972683 48.452683-8.117073 113.489171 44.956097 144.134244 53.098146 30.645073 119.033756 15.934439 147.356098-33.117658l2.372683-4.145952c121.406439 41.734244 255.850146-0.39961 317.240195-106.745756l106.446049-184.369951c77.374439-7.317854 148.754732-46.454634 191.512975-112.390244l-95.556683-55.171122 0.349659-0.574439L289.966829-4.120976l-0.324683 0.599415-94.982244-54.846439z m495.940683 72.803903l-23.601951-13.636683c-62.538927-36.089756-139.688585-22.328195-179.424781 28.771902l250.705171 144.758634c24.401171-59.966439-2.247805-133.669463-64.786732-169.784195l17.108293 9.890342z"  horiz-adv-x="1024" />

    
    <glyph glyph-name="xiaoxi" unicode="&#58896;" d="M512.177371-127.999269a509.804622 509.804622 0 0 0-230.25322 54.564455c-54.857025 27.721083-177.297906-81.26154-218.696675-36.57135-40.959912 44.251334-1.023998 242.029196-24.429662 298.568503A511.998903 511.998903 0 1 0 512.177371-127.999269z m0 73.142701a438.856202 438.856202 0 1 1-405.795701 271.359418c20.114243-48.49361-14.116541-217.965247 20.991955-255.999451 35.47421-38.253632 140.433985 55.149596 187.464741 31.451361 59.31873-29.988507 126.390586-46.811328 197.339005-46.811328zM365.891971 383.999634m-73.142701 0a73.1427 73.1427 0 1 1 146.285401 0 73.1427 73.1427 0 1 1-146.285401 0ZM658.462772 383.999634m-73.1427 0a73.1427 73.1427 0 1 1 146.285401 0 73.1427 73.1427 0 1 1-146.285401 0Z"  horiz-adv-x="1024" />

    
    <glyph glyph-name="shangchuantupian" unicode="&#58923;" d="M1010.688 29.696H1024v-74.752h-13.312v74.752z m0 123.904H1024v-74.752h-13.312V153.6z m0 123.904H1024v-74.752h-13.312v74.752z m0 122.88H1024v-74.752h-13.312v74.752z m0 123.904H1024v-74.752h-13.312v74.752z m0 123.904H1024v-74.752h-13.312v74.752z m0 123.904H1024v-74.752h-13.312v74.752z m0 123.904H1024v-74.752h-13.312V896zM907.264 896h74.752v-13.312h-74.752V896z m-122.88 0h74.752v-13.312h-74.752V896zM660.48 896h74.752v-13.312H660.48V896zM536.576 896h74.752v-13.312h-74.752V896zM412.672 896h74.752v-13.312h-74.752V896zM288.768 896h74.752v-13.312h-74.752V896zM164.864 896h74.752v-13.312h-74.752V896zM40.96 896h74.752v-13.312H40.96V896zM0-94.208V-128h33.792v13.312h-20.48v20.48H0z m0 123.904h13.312v-74.752H0v74.752zM0 153.6h13.312v-74.752H0V153.6z m0 123.904h13.312v-74.752H0v74.752z m0 122.88h13.312v-74.752H0v74.752z m0 123.904h13.312v-74.752H0v74.752z m0 123.904h13.312v-74.752H0v74.752z m0 123.904h13.312v-74.752H0v74.752zM0 896h13.312v-74.752H0V896z m82.944-1010.688h74.752V-128H82.944v13.312z m122.88 0h74.752V-128h-74.752v13.312z m498.688 516.096H529.408V576.512h-33.792v-175.104H320.512v-33.792h175.104v-175.104h33.792v174.08h175.104v34.816z m-374.784-516.096h74.752V-128h-74.752v13.312z m123.904 0h74.752V-128h-74.752v13.312z m123.904 0h74.752V-128h-74.752v13.312z m123.904 0h74.752V-128H701.44v13.312z m123.904 0h74.752V-128h-74.752v13.312z m185.344 20.48v-20.48h-61.44V-128H1024v33.792h-13.312z"  horiz-adv-x="1024" />

    
    <glyph glyph-name="cha" unicode="&#59012;" d="M511.99-109.12c-271.902 0-493.11 221.218-493.11 493.12S240.088 877.12 511.99 877.12 1005.12 655.912 1005.12 384s-221.249-493.12-493.13-493.12z m0 936.958C267.256 827.838 68.152 628.733 68.152 384S267.267-59.838 511.99-59.838 955.787 139.267 955.787 384 756.733 827.838 511.99 827.838zM686.044 185.295a24.56 24.56 0 0 0-17.448 7.224l-156.77 156.77L355.363 192.56a24.63 24.63 0 1 0-34.793 34.793l156.7 156.77-156.74 156.483a24.651 24.651 0 1 0 34.864 34.864l156.739-156.74 156.463 156.74a24.63 24.63 0 1 0 34.793-34.792L546.7 383.898l156.76-156.494a24.662 24.662 0 0 0-17.396-42.11z"  horiz-adv-x="1024" />

    
    <glyph glyph-name="kefu" unicode="&#58883;" d="M55.359 342.597v-110.924a83.027 83.027 0 0 1 166.054 0V342.597a83.027 83.027 0 0 1-166.054 0z m763.102-211.553a137.853 137.853 0 0 0-43.534 100.63V342.596a138.378 138.378 0 0 0 137.41 138.268C898.138 681.929 730.507 840.649 525.846 840.649c-204.69 0-372.293-158.72-386.491-359.784a138.461 138.461 0 0 0 137.41-138.268v-110.924a138.378 138.378 0 0 0-276.757 0V342.597a138.378 138.378 0 0 0 83.304 126.865C91.892 706.477 286.728 896 525.846 896s433.954-189.523 442.534-426.538a138.461 138.461 0 0 0 83.304-126.865v-110.924a138.378 138.378 0 0 0-184.79-130.27 470.763 470.763 0 0 0-188.86-121.219 96.81 96.81 0 0 0-97.114-94.346h-82.528c-53.691 0-97.114 43.174-97.114 96.865 0 53.607 43.284 96.865 97.141 96.865h82.474c34.954 0 65.536-18.266 82.64-45.804a415.274 415.274 0 0 1 154.9 97.28z m11.817 211.553v-110.924a83.027 83.027 0 0 1 166.054 0V342.597a83.027 83.027 0 0 1-166.054 0zM498.448-58.81h82.473c23.303 0 41.79 18.488 41.79 41.514 0 23.054-18.57 41.513-41.79 41.513H498.448c-23.303 0-41.79-18.487-41.79-41.513 0-23.054 18.57-41.514 41.79-41.514z"  horiz-adv-x="1051" />

    
    <glyph glyph-name="zhanghaoanquan" unicode="&#59057;" d="M901.12 759.296c-2.56 0-4.608-0.512-7.168-1.024-15.872-3.072-35.328-6.144-58.88-6.144-37.888 0.512-75.264 6.656-111.104 18.944-87.552 28.672-154.624 83.968-187.904 115.712-5.632 5.632-13.824 8.704-22.016 8.704-9.216 0-17.92-4.096-24.064-10.752-51.712-54.272-116.736-93.696-188.928-114.176-47.616-13.824-87.04-18.432-118.272-18.432-18.432 0-36.864 1.536-54.784 5.12-9.216 2.048-19.456-0.512-26.624-6.656-7.168-6.144-11.776-15.36-11.776-25.088v-367.104c0-230.4 179.2-419.84 412.672-484.864 6.144-1.536 12.8-1.536 18.944 0 229.888 66.048 412.672 254.464 412.672 484.864v368.64c0 8.704-3.584 16.896-9.728 23.04-6.144 5.632-14.336 9.216-23.04 9.216z m-9.216-399.872c0-196.096-156.16-378.368-380.416-443.392-227.328 64-379.904 241.664-379.904 443.392v355.328c15.872-2.56 33.28-4.096 50.688-4.096 40.448 0 83.968 6.656 130.048 19.968 76.288 22.016 145.408 62.976 201.216 119.296 37.376-34.304 107.008-89.088 196.608-118.272 41.984-13.824 83.968-20.992 124.416-20.992 19.968 0 39.424 1.536 56.832 5.12v-356.352z m0 0M708.608 534.016l-229.376-254.464-113.664 101.376c-8.704 6.656-20.992 5.632-28.672-2.56-7.168-8.192-7.168-20.992 0.512-28.672l129.536-115.712c8.704-7.68 22.016-7.168 29.696 1.536l243.712 270.336c7.68 8.704 7.168 22.016-1.536 29.696s-22.016 6.656-30.208-1.536z m0 0"  horiz-adv-x="1024" />

    
    <glyph glyph-name="gongyi" unicode="&#58913;" d="M224.446 563.282c25.548 64.829 79.053 81.825 124.81 81.825 68.979 0 141.414-53.524 180.359-139.375 39.996 86.998 113.822 139.375 180.398 139.375 45.778 0 86.832-19.409 109.786-51.961 27.288-38.708 36.175-91.641 3.738-152.6a450.395 450.395 0 0 0 83.013 0.329c21.346 74.249 13.917 146.617-23.5 197.82-41.298 56.383-102.196 84.814-173.026 84.814-67.013 0-128.24-31.744-180.389-89.319-52.128 57.575-113.346 89.319-180.368 89.319-77.916 0-154.319-40.548-188.83-112.694 6.048-14.585 35.163-32.266 64.009-47.533zM710.024 693.94c62.745 0 114.328-25.146 149.154-72.692 27.631-37.81 36.222-91.311 24.545-149.349a481.388 481.388 0 0 1-15.873 0.299c13.156 49.028 5.14 96.815-23.885 137.988-28.474 40.381-78.55 64.489-133.951 64.489-66.258 0-134.119-42.208-180.169-108.93-45.71 67.495-112.687 108.93-180.588 108.93-60.509 0-108.14-24.76-137.14-70.478-6.993 4.288-12.055 7.767-15.713 10.526 31.233 48.66 89.209 79.218 152.863 79.218 57.319 0 110.629-26.78 158.449-79.597l21.914-24.205 21.919 24.2c47.843 52.82 101.161 79.601 158.475 79.601m0 29.569c-67.012 0-128.24-31.745-180.389-89.32-52.129 57.575-113.347 89.32-180.368 89.32-77.916 0-154.319-40.548-188.83-112.694 6.048-14.584 35.163-32.265 64.009-47.533 25.549 64.829 79.053 81.825 124.81 81.825 68.979 0 141.414-53.524 180.359-139.375 39.996 86.998 113.822 139.375 180.398 139.375 45.778 0 86.832-19.409 109.786-51.961 27.288-38.709 36.175-91.641 3.738-152.6a450.462 450.462 0 0 0 83.013 0.329c21.346 74.249 13.917 146.617-23.5 197.82-41.297 56.381-102.195 84.814-173.026 84.814zM705.251 340.12c1.107 16.997 1.107 30.793 11.267 44.049-105.27-55.908-112.781-175.807-174.695-256.388-15.348 97.148-71.159 200.48-115.313 256.651-31.83 40.462-68.616 82.355-95.079 121.984 0.717-17.256-3.687-37.287-3.106-54.533-43.593 60.237-233.342 94.943-206.024 179.418-41.22-58.89-23.819-208.248 16.573-269.895 61.314-93.548 180.212-118.236 265.339-182.139 42.152-31.632 87.276-71.372 125.412-129.817 61.531 91.357 126.587 131.233 180.834 169.329 38.115 26.732 67.953 48.852 100.921 82.194 37.913 38.319 53.369 98.185 115.925 104.026-32.987 4.783-187.13 21.563-222.054-64.879zM128.491 543.436c25.887-22.044 60.825-39.717 92.189-55.58 33.354-16.87 71.159-35.991 83.692-53.309l56.768-78.442-2.187 64.863a6043.71 6043.71 0 0 1 14.177-17.426c10.218-12.528 20.414-25.028 30.135-37.384 42.776-54.418 95.241-153.669 109.353-242.991l0.494-3.129c-31.664 36.172-64.111 62.588-91.147 82.876-33.116 24.859-70.462 43.865-106.579 62.246-60.246 30.66-117.151 59.619-151.778 112.451-23.214 35.427-37.73 107.581-35.117 165.825m704.724-164.709c-5.633-7.345-10.752-14.759-15.613-21.796-8.971-12.991-17.445-25.261-27.248-35.169-30.458-30.804-58.29-51.589-90.704-74.439l33.016 81.72c14.057 34.793 61.14 46.335 100.549 49.684m-159.585-69.17l-5.48-84.167c-19.509-13.572-40.598-28.641-62.401-47.038 5.675 11.9 11.004 23.885 16.273 35.736 15.29 34.387 30.08 67.649 51.608 95.469M122.301 631.3c-41.22-58.89-23.818-208.248 16.573-269.895 61.314-93.547 180.211-118.236 265.339-182.139 42.152-31.632 87.276-71.372 125.412-129.817 61.531 91.357 126.587 131.233 180.834 169.329 38.115 26.731 67.953 48.851 100.92 82.194 37.913 38.318 53.369 98.184 115.925 104.026-10.981 1.593-35.4 4.514-64.366 4.514-58.048 0-134.39-11.727-157.688-69.394 1.107 16.997 1.107 30.794 11.267 44.049-105.271-55.908-112.781-175.807-174.695-256.388-15.348 97.148-71.16 200.48-115.313 256.65-31.83 40.462-68.616 82.355-95.079 121.985 0.717-17.257-3.687-37.287-3.105-54.533-43.593 60.238-233.342 94.945-206.024 179.419z"  horiz-adv-x="1024" />

    
    <glyph glyph-name="xiala" unicode="&#58921;" d="M1009.371429 647.314286c-14.628571 14.628571-36.571429 14.628571-43.885715 0L512 193.828571 58.514286 647.314286c-14.628571 14.628571-36.571429 14.628571-43.885715 0-14.628571-14.628571-14.628571-36.571429 0-51.2l475.428572-475.428572c14.628571-14.628571 36.571429-14.628571 43.885714 0l475.428572 475.428572c14.628571 14.628571 14.628571 36.571429 0 51.2z"  horiz-adv-x="1024" />

    
    <glyph glyph-name="yijianfankui" unicode="&#58890;" d="M998.4 127.2H175.2c-14.4 0-25.6 10.4-25.6 24V733.6c0 12.8 12 24 25.6 24h823.2c14.4 0 25.6-10.4 25.6-24v-582.4c0-13.6-12-24-25.6-24zM253.6-72.8c-6.4 0-13.6 2.4-19.2 7.2-12 10.4-12.8 28.8-2.4 40.8l159.2 179.2h291.2c26.4 0 48 21.6 48 48V575.2c0 26.4-21.6 48-48 48H104.8c-26.4 0-48-21.6-48-48v-372.8c0-26.4 21.6-48 48-48h156.8c16 0 28.8-12.8 28.8-28.8s-12.8-28.8-28.8-28.8H104.8C47.2 96.8 0 144.8 0 203.2V575.2c0 58.4 47.2 105.6 104.8 105.6h576.8c57.6 0 104.8-47.2 104.8-105.6v-372.8c0-58.4-47.2-105.6-104.8-105.6H416.8l-141.6-160c-5.6-6.4-13.6-9.6-21.6-9.6zM880 261.6c-16 0-28.8 12.8-28.8 28.8V695.2c0 26.4-21.6 48-48 48H207.2c-16 0-28.8 12.8-28.8 28.8s12.8 28.8 28.8 28.8h596c57.6 0 104.8-47.2 104.8-105.6v-405.6c0.8-15.2-12-28-28-28z"  horiz-adv-x="1024" />

    
    <glyph glyph-name="gouxuan1" unicode="&#59084;" d="M703.3 556.4L419 273.5l-94.7 144.7c-8.2 12.5-25 16-37.5 7.8s-16-25-7.8-37.5l112.9-172.6c4.5-6.8 11.8-11.3 19.9-12.1 0.9-0.1 1.9-0.1 2.8-0.1 7.1 0 14 2.8 19.1 7.9L741.5 518c10.6 10.6 10.7 27.7 0.1 38.3-10.5 10.6-27.7 10.7-38.3 0.1z m221.5 2c-22.6 53.4-54.9 101.3-96 142.4-41.1 41.1-89 73.4-142.4 96C631.1 820.2 572.5 832 512 832S392.9 820.2 337.6 796.8c-53.4-22.6-101.3-54.9-142.4-96-41.1-41.1-73.4-89-96-142.4C75.8 503.1 64 444.5 64 384s11.8-119.1 35.2-174.4c22.6-53.4 54.9-101.3 96-142.4 41.1-41.1 89-73.4 142.4-96C392.9-52.2 451.5-64 512-64s119.1 11.8 174.4 35.2c53.4 22.6 101.3 54.9 142.4 96 41.1 41.1 73.4 89 96 142.4C948.2 264.9 960 323.5 960 384s-11.8 119.1-35.2 174.4z m-50-327.7c-19.8-46.9-48.2-89-84.4-125.2s-78.3-64.6-125.2-84.4c-48.5-20.5-100.1-30.9-153.3-30.9s-104.7 10.4-153.3 30.9c-46.9 19.8-89 48.2-125.2 84.4s-64.6 78.3-84.4 125.2c-20.5 48.5-30.9 100.1-30.9 153.3s10.4 104.7 30.9 153.3c19.8 46.9 48.2 89 84.4 125.2s78.3 64.6 125.2 84.4c48.5 20.5 100.1 30.9 153.3 30.9s104.7-10.4 153.3-30.9c46.9-19.8 89-48.2 125.2-84.4s64.6-78.3 84.4-125.2c20.5-48.5 30.9-100.1 30.9-153.3s-10.3-104.7-30.9-153.3z"  horiz-adv-x="1024" />

    
    <glyph glyph-name="fasong" unicode="&#58948;" d="M0-128l108.423529 472.847059L692.705882 380.988235 108.423529 423.152941 0 896l1024-512L0-128z m0 0"  horiz-adv-x="1024" />

    
    <glyph glyph-name="xieyi" unicode="&#58968;" d="M829.6-70.4h-520c-67.2 0-121.6 54.4-121.6 121.6V712.8c0 67.2 54.4 121.6 121.6 121.6h444c67.2 0 121.6-54.4 121.6-121.6v-739.2c-0.8-24-20.8-44-45.6-44zM496-27.2H216.8c-42.4 0-76.8 37.6-76.8 84V708.8c0 46.4 34.4 84 76 84h538.4c42.4 0 76.8-37.6 76.8-84v-348c0-12 9.6-21.6 21.6-21.6 12 0 21.6 9.6 21.6 21.6V708.8c0 70.4-53.6 127.2-120 127.2H216c-65.6 0-119.2-56.8-119.2-127.2v-652c0-70.4 53.6-127.2 119.2-127.2h279.2c12 0 21.6 9.6 21.6 21.6 0.8 12-9.6 21.6-20.8 21.6zM660.8 263.2H816v-214.4H660.8zM490.4 362.4H245.6c-13.6 0-24.8-11.2-24.8-24.8s11.2-24.8 24.8-24.8h244.8c13.6 0 24.8 11.2 24.8 24.8 0 13.6-11.2 24.8-24.8 24.8z m0-151.2H245.6c-13.6 0-24.8-11.2-24.8-24.8s11.2-24.8 24.8-24.8h244.8c13.6 0 24.8 11.2 24.8 24.8s-11.2 24.8-24.8 24.8z m282.4 264c0 13.6-8.8 24.8-20 24.8h-512c-11.2 0-20-11.2-20-24.8s8.8-24.8 20-24.8h512.8c10.4 0 19.2 11.2 19.2 24.8zM240.8 608h512.8c11.2 0 20 11.2 20 24.8s-8.8 24.8-20 24.8H240.8c-11.2 0-20-11.2-20-24.8 0-14.4 8.8-24.8 20-24.8z m625.6-615.2H611.2c-20.8 0-31.2-8-31.2-24.8v-38.4h318.4v37.6c0 17.6-11.2 25.6-32 25.6z m-54.4 280c-20.8 16.8-47.2 25.6-73.6 25.6-30.4 0-60-12-82.4-33.6-41.6-40.8-42.4-110.4-2.4-163.2 0-0.8-0.8-0.8-0.8-1.6-1.6-2.4-2.4-3.2-4-4.8l-2.4-2.4c-9.6-12.8-12.8-32-8-47.2 7.2-24.8 32-27.2 40.8-28 8.8-0.8 16-0.8 26.4-0.8h17.6c10.4 0.8 20.8 0.8 32 0.8H796c26.4 0 38.4 13.6 43.2 25.6 8 18.4 4.8 38.4-10.4 53.6l-5.6 5.6c4.8 6.4 10.4 12.8 14.4 19.2 32 49.6 20.8 114.4-25.6 151.2z m-11.2-127.2c-4-5.6-8.8-11.2-14.4-18.4l-0.8-0.8c-13.6-16.8-12.8-36 2.4-50.4l8.8-8.8c3.2-3.2 2.4-4.8 2.4-5.6-0.8 0-1.6-0.8-4-0.8h-40.8c-10.4-0.8-21.6-0.8-32.8-0.8h-16c-8.8 0-16 0.8-21.6 0.8h-3.2c0 2.4 0.8 4.8 1.6 6.4 0.8 0.8 1.6 2.4 3.2 4 0.8 0.8 0.8 1.6 1.6 1.6 0.8 1.6 1.6 2.4 2.4 3.2 16.8 20.8 9.6 37.6 0.8 48-24.8 30.4-34.4 78.4-3.2 108.8 13.6 13.6 32 21.6 52 21.6 16.8 0 33.6-6.4 46.4-16.8 28-20.8 34.4-61.6 15.2-92z"  horiz-adv-x="1024" />

    
    <glyph glyph-name="gongyi1" unicode="&#58917;" d="M493.1 153.2c-211.2 11.6-340.7 173.5-340.7 385.4 0 76.7-2 146.8 36.1 207.5 48-4 109.8-13.4 164.6-35.3 11.2-4.9 33-14.9 43.3-21 2.9 11.8 10.4 34.9 14.1 45.8C435.7 802.7 477.1 852 530.9 885.5c56.9-33.3 93.8-83.5 119.5-149.4 3.5-9.9 12.5-35.8 15.6-46.2 8.7 6.7 31.4 18.5 42.1 23.8 49.7 21 113.2 29.7 162.6 33.1 39.6-62.9 38.8-134 38.7-208.1 0-211.2-130.5-372.8-340.7-385.4V-78c0-12.9-24.8-38.6-37.9-38.6-13 0-37.8 25.7-37.8 38.6V153.2zM360.5-101.2C294.9 29.5 172.7 98.4 30.6 99.1 14.2 99.2 0.9 111.3 1 126.3c0.1 14.9 13.5 27 29.9 26.9 164.9-0.8 308.3-81.7 383.8-231.9 4.4-8.8 3.3-19-2.9-26.9-6.2-7.9-16.5-12.1-27.1-11.2-10.5 0.9-19.8 6.8-24.2 15.6z m286.2 22.4c68.6 150.2 199.1 231.2 349.1 231.9 14.9 0.1 27.1-12 27.2-26.9 0.1-14.9-12-27.1-26.9-27.1-129.3-0.7-240.5-69.6-300.2-200.3-4-8.8-12.4-14.8-22-15.7-9.6-0.9-19 3.3-24.6 11.2-5.7 7.9-6.6 18.1-2.6 26.9z m31.6 717.4c-11.1-8.7-30.4-25.9-43.2-21.9-12.8 4-22.6 13.9-26.3 26.5-20.9 70.8-40 97.8-76.7 127.2-36.8-29.4-62.3-70.8-75.9-125.5-3-12.1-11.8-22.2-23.6-27-11.8-4.8-25.4-3.9-36.4 2.5-40.1 23.3-71.3 34.4-134.8 39.5-21.9-41.6-33.2-87.7-33.2-134.4 0-163 135.6-295 302.8-295s302.8 132 302.8 295c0 47.6-11.6 93.5-33.4 134.8-67.7-4.7-92 1.9-122.1-21.7z m-5.8-15.5"  horiz-adv-x="1024" />

    
    <glyph glyph-name="jianchagengxin" unicode="&#59149;" d="M776.533333 307.2c-17.066667-17.066667-36.266667-32-55.466666-46.933333-6.4-4.266667-8.533333-10.666667-10.666667-17.066667-17.066667-66.133333-51.2-128-100.266667-174.933333-23.466667-23.466667-49.066667-42.666667-76.8-59.733334-23.466667-14.933333-51.2 10.666667-42.666666 36.266667 14.933333 40.533333 21.333333 83.2 21.333333 128-4.266667 0-8.533333-2.133333-10.666667-2.133333-36.266667 32-72.533333 64-106.666666 98.133333-34.133333 34.133333-66.133333 70.4-98.133334 106.666667 0 4.266667 2.133333 8.533333 2.133334 10.666666-44.8 0-87.466667-6.4-128-21.333333-25.6-8.533333-49.066667 19.2-36.266667 42.666667 17.066667 27.733333 36.266667 53.333333 59.733333 76.8 49.066667 49.066667 108.8 83.2 174.933334 100.266666 6.4 2.133333 12.8 6.4 17.066666 10.666667 14.933333 19.2 29.866667 38.4 46.933334 55.466667 121.6 121.6 292.266667 164.266667 448 128 10.666667-2.133333 19.2-10.666667 21.333333-21.333334 38.4-157.866667-4.266667-328.533333-125.866667-450.133333z m-68.266666 273.066667c-23.466667 25.6-59.733333 34.133333-93.866667 25.6-34.133333-8.533333-59.733333-36.266667-68.266667-68.266667-8.533333-34.133333 0-70.4 25.6-93.866667 38.4-36.266667 98.133333-36.266667 136.533334 0 38.4 38.4 38.4 100.266667 0 136.533334zM349.866667 221.866667c36.266667-36.266667 40.533333-87.466667 10.666666-117.333334-29.866667-29.866667-211.2-153.6-247.466666-119.466666-36.266667 36.266667 89.6 217.6 119.466666 247.466666 27.733333 29.866667 81.066667 25.6 117.333334-10.666666z"  horiz-adv-x="1024" />

    
    <glyph glyph-name="fandui" unicode="&#58891;" d="M139.124106 295.14325299999996L377.029494 295.14325299999996c-92.185562-340.464205 63.516616-357.853247 63.516616-357.853247 65.993017 0 52.312436 52.18247599 57.3031 60.881602 0 166.502152 176.849824 296.971645 176.849824 296.971645l-1e-8 472.171899c0 46.607504-63.516616 63.393819-88.43309799 63.393819l-357.452111 0c-33.641191 0-61.036122-88.224344-61.036122-88.224344-88.43412199-300.70569-88.434122-390.177444-88.43412199-390.177444C79.342558 290.17919500000005 139.124106 295.14325299999996 139.124106 295.14325299999996L139.124106 295.14325299999996 139.124106 295.14325299999996zM139.124106 295.14325299999996M772.328585 295.29981899999996L914.785088 295.29981899999996c29.420053 0 29.873378 28.89612 29.873378 28.89612l-29.420053 476.202703c0 30.30930601-30.36149501 30.309306-30.36149499 30.309306L761.57977699 830.707948c-25.68600901 0-25.458835-20.049638-25.458835-20.049638L736.12094199 331.41127100000006C736.120942 294.83728399999995 772.328585 295.29981899999996 772.328585 295.29981899999996L772.328585 295.29981899999996 772.328585 295.29981899999996zM772.328585 295.29981899999996"  horiz-adv-x="1024" />

    
    <glyph glyph-name="guanyu" unicode="&#58969;" d="M572.952381-54.857143C782.628571-54.857143 950.857143 120.685714 950.857143 335.238095S782.628571 725.333333 572.952381 725.333333 195.047619 549.790476 195.047619 335.238095s168.228571-390.095238 377.904762-390.095238zM499.809524-30.47619C721.67619-30.47619 902.095238 149.942857 902.095238 371.809524S721.67619 774.095238 499.809524 774.095238 97.52381 593.67619 97.52381 371.809524 277.942857-30.47619 499.809524-30.47619z m0-73.142858C236.495238-103.619048 24.380952 108.495238 24.380952 371.809524S236.495238 847.238095 499.809524 847.238095 975.238095 635.12381 975.238095 371.809524 763.12381-103.619048 499.809524-103.619048zM575.390476 137.752381c-21.942857-7.314286-29.257143-4.87619-41.447619-9.752381s-26.819048-7.314286-43.885714-7.314286c-24.380952 0-43.885714 7.314286-58.514286 19.504762-14.628571 12.190476-29.257143 26.819048-29.257143 46.32381 0 0-2.438095 36.571429 9.752381 60.952381l36.571429 85.333333c2.438095 9.752381 4.87619 17.066667 4.87619 24.380952 2.438095 7.314286 2.438095 9.752381 2.438096 14.628572 0 12.190476-7.314286 19.504762-12.190477 24.380952-4.87619 4.87619-24.380952 7.314286-39.009523 7.314286-7.314286 0-14.628571 0-19.504762-2.438095-7.314286-2.438095-14.628571-4.87619-19.504762-7.314286v34.133333c17.066667 7.314286 51.2 17.066667 65.828571 21.942857 17.066667 4.87619 31.695238 7.314286 46.32381 7.314286 24.380952 0 51.2-4.87619 63.390476-17.066667 14.628571-12.190476 29.257143-31.695238 29.257143-51.2 0-4.87619 0-12.190476-2.438096-21.942857 0-9.752381-2.438095-19.504762-4.87619-26.819047l-41.447619-82.895238c-2.438095-7.314286-4.87619-14.628571-4.876191-24.380953-2.438095-9.752381-2.438095-29.257143-2.438095-34.133333 0-12.190476 2.438095-19.504762 7.314286-24.380952 4.87619-4.87619 12.190476-12.190476 24.380952-12.190477 17.066667 0 17.066667-2.438095 34.133334 4.876191l-4.876191-29.257143z m0 377.904762c-12.190476-9.752381-24.380952-17.066667-41.447619-17.066667s-29.257143 4.87619-41.447619 17.066667c-9.752381 9.752381-17.066667 24.380952-17.066667 39.009524 0 14.628571 4.87619 29.257143 17.066667 39.009523 12.190476 9.752381 24.380952 17.066667 41.447619 17.066667s29.257143-4.87619 41.447619-17.066667c9.752381-9.752381 17.066667-24.380952 17.066667-39.009523 0-14.628571-7.314286-29.257143-17.066667-39.009524z"  horiz-adv-x="1024" />

    
    <glyph glyph-name="yijianfankui1" unicode="&#58907;" d="M516.8 395.2m-310.4 0a310.4 310.4 0 1 1 620.8 0 310.4 310.4 0 1 1-620.8 0ZM835.2 582.4c8-14.4 16-27.2 22.4-41.6 9.6-22.4 17.6-46.4 24-70.4 3.2-14.4 4.8-28.8 6.4-43.2 1.6-17.6 3.2-35.2 1.6-54.4-1.6-32-6.4-64-14.4-96-6.4-24-16-48-27.2-70.4-12.8-24-28.8-48-46.4-68.8-9.6-11.2-19.2-22.4-30.4-32-22.4-22.4-48-40-75.2-56-20.8-11.2-41.6-20.8-64-28.8s-44.8-12.8-67.2-16c-22.4-3.2-43.2-4.8-65.6-3.2-24 0-48 3.2-72 9.6-33.6 8-65.6 19.2-97.6 36.8-22.4 12.8-43.2 25.6-62.4 41.6-11.2 9.6-20.8 19.2-30.4 28.8-22.4 22.4-40 48-56 75.2-22.4 38.4-36.8 80-44.8 124.8-3.2 16-4.8 32-4.8 48v32c1.6 32 4.8 64 14.4 94.4 6.4 25.6 16 48 28.8 72 12.8 25.6 28.8 48 46.4 70.4 24 28.8 52.8 54.4 83.2 75.2 36.8 24 76.8 41.6 120 51.2 17.6 4.8 36.8 6.4 54.4 8 16 1.6 32 1.6 46.4 1.6 44.8-1.6 89.6-11.2 131.2-28.8 27.2-11.2 54.4-25.6 78.4-44.8 1.6-1.6 1.6-3.2 0-4.8l-22.4-22.4c-1.6-1.6-3.2-1.6-4.8 0-12.8 9.6-27.2 17.6-43.2 25.6-30.4 14.4-60.8 25.6-94.4 30.4-24 3.2-48 6.4-72 4.8-41.6-1.6-81.6-11.2-120-27.2-30.4-12.8-57.6-30.4-83.2-51.2-24-19.2-44.8-43.2-62.4-68.8-20.8-28.8-35.2-59.2-46.4-92.8-6.4-20.8-11.2-41.6-12.8-64-1.6-19.2-3.2-36.8-1.6-56 1.6-27.2 6.4-54.4 12.8-80 6.4-19.2 12.8-40 22.4-57.6 12.8-24 27.2-46.4 44.8-67.2 25.6-30.4 54.4-54.4 88-75.2 32-19.2 65.6-32 102.4-40 16-3.2 33.6-6.4 49.6-6.4 11.2 0 22.4-1.6 32 0 27.2 1.6 54.4 4.8 81.6 12.8 22.4 6.4 43.2 14.4 64 25.6 22.4 11.2 44.8 25.6 64 43.2 25.6 22.4 48 46.4 65.6 73.6 25.6 38.4 41.6 78.4 49.6 123.2 3.2 14.4 4.8 28.8 4.8 43.2 1.6 12.8 1.6 25.6 0 36.8-1.6 27.2-4.8 54.4-12.8 80-6.4 20.8-14.4 40-24 59.2-3.2 4.8-4.8 9.6-8 14.4 0 1.6-1.6 3.2 0 4.8 11.2 4.8 19.2 12.8 27.2 20.8zM500.8 344c-6.4 0-9.6 3.2-8 8 0 9.6 4.8 17.6 8 25.6 9.6 22.4 22.4 41.6 36.8 62.4 8 11.2 16 22.4 25.6 32l272 272c3.2 3.2 4.8 3.2 6.4 0l52.8-52.8c1.6-1.6 1.6-3.2 0-6.4C798.4 590.4 704 496 608 401.6c-4.8-4.8-12.8-9.6-19.2-12.8-19.2-12.8-40-25.6-62.4-35.2-6.4-3.2-14.4-6.4-22.4-8 0-1.6-1.6-1.6-3.2-1.6z"  horiz-adv-x="1024" />

    
    <glyph glyph-name="gouxuan2" unicode="&#59006;" d="M512.333 59.038c-43.75 0-86.192 8.572-126.152 25.471-38.594 16.325-73.251 39.692-103.012 69.454s-53.129 64.417-69.454 103.012c-16.899 39.961-25.471 82.406-25.471 126.152 0 43.749 8.572 86.191 25.471 126.152 16.329 38.594 39.692 73.25 69.454 103.012 29.761 29.761 64.418 53.129 103.012 69.452 39.961 16.9 82.402 25.472 126.152 25.472 43.745 0 86.192-8.572 126.152-25.472 38.594-16.323 73.25-39.691 103.012-69.452 29.761-29.762 53.129-64.418 69.448-103.012 16.904-39.962 25.476-82.403 25.476-126.152 0-43.746-8.572-86.192-25.476-126.152-16.323-38.595-39.687-73.251-69.448-103.012-29.762-29.761-64.418-53.129-103.012-69.454-39.96-16.899-82.407-25.471-126.152-25.471z m0 630.822c-169.136 0-306.734-137.601-306.734-306.733s137.602-306.73 306.734-306.73 306.73 137.598 306.73 306.73S681.465 689.86 512.333 689.86z m0 0M470.082 254.888a8.662 8.662 0 0 0-5.69 2.129L330.546 373.35a8.679 8.679 0 0 0 11.388 13.099L469.382 275.68l186.301 204.504c3.225 3.545 8.716 3.802 12.261 0.571 3.541-3.225 3.797-8.716 0.571-12.257L476.501 257.72a8.66 8.66 0 0 0-6.419-2.832z m0 0"  horiz-adv-x="1024" />

    
    <glyph glyph-name="quanquan-" unicode="&#58894;" d="M512-112C238.496-112 16 110.496 16 384S238.496 880 512 880 1008 657.504 1008 384 785.504-112 512-112z m0 960C256.16 848 48 639.84 48 384S256.16-80 512-80 976 128.16 976 384 767.84 848 512 848z"  horiz-adv-x="1024" />

    
    <glyph glyph-name="tongzhi1" unicode="&#58940;" d="M246.784-28.009412v244.675765l119.567059-121.313882-119.567059-123.361883z m331.113412-73.246117l-324.065883 324.065882 457.366589 385.807059-6.02353-2.168471-483.689412-351.35247L0 476.641882 997.255529 896 577.897412-101.255529z"  horiz-adv-x="1024" />

    
    <glyph glyph-name="aixin01" unicode="&#58633;" d="M734.208894 771.885238c-65.681932 37.975916-141.934616 59.706847-223.258807 59.706847-246.716055 0-446.716134-200.001103-446.716134-446.716134s200.001103-446.716134 446.716134-446.716134 446.716134 200.001103 446.716134 446.716134C957.667246 550.262698 867.786169 694.660412 734.208894 771.885238zM727.410048 378.194784c-3.099594-8.447393-7.175423-16.59598-12.142551-24.216541-4.172019-6.412037-8.988722-12.487406-14.309914-18.067494l-1.01819-0.977257-188.063213-172.980703L322.700633 334.50677199999996c-6.043646 6.14393-11.483542 12.95608-16.145725 20.24509-4.594645 7.184633-8.42488 14.846126-11.387351 22.784936-5.021364 13.473873-7.575536 33.686217-7.575536 47.623647 0 68.049862 58.075697 108.620883 129.47484 108.620883 35.94056 0 69.831438-26.033933 94.097098-50.513464 24.257473 24.479531 58.157561 50.513464 94.102215 50.513464 71.38584 0 129.460514-40.571021 129.460514-108.620883C734.726687 411.459399 732.263589 391.459902 727.410048 378.194784z"  horiz-adv-x="1024" />

    
    <glyph glyph-name="shang" unicode="&#58924;" d="M1014.7 167L534.8 646.4c-6.3 6.2-14.5 9.3-22.7 9.3s-16.4-3.1-22.7-9.3l-480-479.4c-12.4-12.5-12.4-32.9 0-45.3 12.5-12.4 32.9-12.4 45.4 0l457.4 456.8 457.4-456.8c12.4-12.4 32.8-12.4 45.3 0 12.2 12.5 12.2 32.9-0.2 45.3z"  horiz-adv-x="1024" />

    
    <glyph glyph-name="cha1" unicode="&#58994;" d="M512 851.478261C253.952 851.478261 44.521739 642.048 44.521739 384S253.952-83.478261 512-83.478261 979.478261 125.952 979.478261 384 770.048 851.478261 512 851.478261z m209.430261-676.285218a30.853565 30.853565 0 0 0-44.254609 0l-167.045565 168.292174-169.538783-167.668869a31.610435 31.610435 0 0 0-44.877913 0 30.853565 30.853565 0 0 0 0 44.254609l170.162087 168.292173L305.062957 549.175652a30.853565 30.853565 0 0 0 0 44.254609c12.466087 12.466087 32.411826 12.466087 44.254608 0l160.812522-161.435826 163.305739 161.435826a31.610435 31.610435 0 0 0 44.877913 0c12.466087-12.466087 12.466087-32.411826 0-44.254609l-163.929043-162.05913 166.422261-167.66887c12.466087-11.842783 12.466087-31.788522 0.623304-44.254609z"  horiz-adv-x="1024" />

    
    <glyph glyph-name="bofang1" unicode="&#58925;" d="M537.305511 895.356309A511.678154 511.678154 0 1 1 1023.399757 383.678154 498.374522 498.374522 0 0 1 537.305511 895.356309z m204.671261-542.378844l-307.006892-189.320917c-20.467126-15.350345-51.167815 5.116782-51.167816 30.700689V567.88229a35.305793 35.305793 0 0 0 51.167816 30.700689l307.006892-189.320917a33.25908 33.25908 0 0 0 0-56.284597z"  horiz-adv-x="1024" />

    
    <glyph glyph-name="xihuan1" unicode="&#59102;" d="M1066.575713 344.729986l-37.2795-37.825221-145.195639-147.412626-267.095852-271.291075a52.355016 52.355016 0 0 0-75.036506 0L129.949585 306.734228l-37.518253 38.029865a326.477015 326.477015 0 0 0 0 456.631245 314.437066 314.437066 0 0 0 449.570992 0l37.518252-38.063973 37.279501 37.859328a314.437066 314.437066 0 0 0 449.536884 0 326.306477 326.306477 0 0 0 0.238752-456.460707z"  horiz-adv-x="1160" />

    
    <glyph glyph-name="guanyu1" unicode="&#59140;" d="M556.19072 433.91488m-398.07488 0a398.07488 398.07488 0 1 1 796.14976 0 398.07488 398.07488 0 1 1-796.14976 0ZM519.07584 614.39488m-25.6 0a25.6 25.6 0 1 1 51.2 0 25.6 25.6 0 1 1-51.2 0ZM547.23072 153.59488a25.6 25.6 0 0 0-25.6-25.6 25.6 25.6 0 0 0-25.6 25.6v358.4a25.6 25.6 0 0 0 25.6 25.6 25.6 25.6 0 0 0 25.6-25.6v-358.4zM886.80448 712.35072c-4.56192 7.84896-12.96384 13.18912-22.69696 13.18912a26.34752 26.34752 0 0 1-14.80704-48.128c69.67808-78.0288 112.1792-180.82304 112.1792-293.42208 0-243.23584-197.888-441.11872-441.12384-441.11872s-441.12384 197.88288-441.12384 441.11872c0 243.24096 197.888 441.12896 441.12384 441.12896 90.8288 0 175.29856-27.648 245.53984-74.89536 4.83328-5.78048 12.01152-9.53856 20.13696-9.53856a26.34752 26.34752 0 0 1 18.62656 44.97408l0.03584 0.03584-0.44032 0.30208a26.32704 26.32704 0 0 1-7.08096 4.82816c-78.94016 53.88288-174.2336 85.49376-276.8128 85.49376-271.46752 0-492.32384-220.86144-492.32384-492.32896s220.85632-492.31872 492.32384-492.31872 492.32384 220.85632 492.32384 492.31872c-0.00512 126.06976-47.67232 241.1776-125.88032 328.36096z"  horiz-adv-x="1024" />

    
    <glyph glyph-name="xieyi1" unicode="&#58729;" d="M495.6-27.5H216.8c-42.4 0-76.9 37.7-76.9 84.1V708.5c0 46.4 34.3 84.1 76.4 84.1h538.3c42.4 0 76.9-37.7 76.9-84.1v-347.7c0-11.8 9.6-21.4 21.4-21.4 11.8 0 21.4 9.6 21.4 21.4V708.5c0 69.9-53.6 126.8-119.6 126.8H216.3c-65.7 0-119.1-56.9-119.1-126.8v-651.9c0-33.7 12.4-65.5 34.9-89.5 22.6-24.1 52.5-37.4 84.3-37.4h279.3c11.8 0 21.4 9.6 21.4 21.4-0.1 11.8-9.7 21.4-21.5 21.4zM490.2 365H245.3c-13.5 0-24.5-11-24.5-24.5s11-24.5 24.5-24.5h244.9c13.8 0 24.5 10.8 24.5 24.5 0 13.4-11 24.5-24.5 24.5zM490.2 213.29999999999995H245.3c-13.5 0-24.5-11-24.5-24.5s11-24.5 24.5-24.5h244.9c13.5 0 24.5 11 24.5 24.5s-11 24.5-24.5 24.5zM772.8 478c0 13.5-8.8 24.5-19.5 24.5H240.8c-10.8 0-19.5-11-19.5-24.5s8.8-24.5 19.5-24.5h512.5c10.7 0 19.5 11 19.5 24.5zM240.8 610.6h512.5c10.8 0 19.5 11 19.5 24.5s-8.8 24.5-19.5 24.5H240.8c-10.8 0-19.5-11-19.5-24.5s8.7-24.5 19.5-24.5zM866.4-4.399999999999977H611.1c-20.9 0-30.8-7.9-31.3-25v-38.1h318v37.2c-0.1 17.4-10.3 25.9-31.4 25.9zM837.5 124.5c31.6 49.2 20.6 114.1-25.6 151-20.6 16.5-46.8 25.6-73.6 25.6-30.8 0-59.9-11.9-81.9-33.5-41.7-40.7-42.6-110.5-2.4-163.3-0.4-0.4-0.7-0.9-1.1-1.5-1.6-2-2.8-3.5-3.8-4.6-0.9-1.1-1.6-1.9-2.2-2.7-9.1-12.5-12.5-31.7-8.1-46.7 7.4-24.6 31.6-27.1 40.7-28.1h0.3c8.5-0.5 16.3-0.9 26-0.9h17.3c10.8 0.5 21.1 0.5 32 0.5 4.2 0 8.5 0.1 12.7 0.1v3l0.2-3c8.5 0.1 17.3 0.2 26-0.1h1.5c26.1 0 37.9 13.8 43.3 25.5 8.2 18.3 4.5 37.8-10.2 53.4l-5.6 5.6c4.8 6.3 9.9 12.8 14.5 19.7zM800.7 148c-3.8-5.9-8.5-11.5-14.1-18.1l-0.8-0.8-0.2-0.2c-13.6-16.6-12.8-35.8 2-50.1l8.6-8.6c3.5-3.5 2.9-4.7 2.1-6.2-0.4-0.1-1.5-0.4-4.3-0.4h-40.4c-10.8-0.5-21.8-0.5-32.5-0.5h-15.8c-8.6 0-15.9 0.5-22 0.9h-0.2c-0.6 0-2.1 0.2-3.6 0.4 0.1 2.1 0.7 5 1.5 7 0.8 1.1 1.9 2.7 3.5 4.3l0.2 0.2c0.5 0.6 0.9 1.2 1.4 1.7 1 1.3 1.9 2.5 2.5 3l0.2 0.2c12.7 15.8 12.9 32.8 0.4 48-24.6 30.3-34.2 78.9-3.4 109.3 13.9 13.9 31.9 21.2 52 21.2 16.7 0 33.8-6 46.9-16.5 29-23.4 35.9-64.1 16-94.8z"  horiz-adv-x="1024" />

    
    <glyph glyph-name="kefu-9" unicode="&#58629;" d="M511.489023 896C229.147365 896 0.000511 666.853147 0.000511 384.511489s229.146853-511.488511 511.488512-511.488512 511.488511 229.146853 511.488511 511.488512c0 282.853147-229.146853 511.488511-511.488511 511.488511z m279.272727-647.544456c-37.85015-69.562438-103.832168-121.222777-182.601398-140.65934-8.695305-29.666334-35.804196-51.148851-68.027972-51.148851-39.384615 0-71.096903 31.712288-71.096903 71.096903s31.712288 71.096903 71.096903 71.096903c27.108891 0 50.125874-15.344655 62.401598-37.338661l4.603397 4.603396c38.873127 11.764236 73.142857 33.758242 99.740259 62.913087-20.45954 3.068931-38.873127 11.764236-54.217782 24.551449L706.366146 454.073926c6.137862 1.022977 12.275724 1.534466 18.925075 1.534466 4.091908 0 8.183816-0.511489 12.275724-0.511489-13.81019 113.038961-109.97003 200.503497-226.589411 200.503497C394.358154 655.6004 298.198314 568.1358640000001 284.388124 455.096903c4.091908 0.511489 8.183816 0.511489 12.275724 0.511489 6.137862 0 12.787213-0.511489 18.413587-1.534466L368.783728 253.57043c-19.948052-16.367632-45.010989-26.085914-72.631368-26.085915-62.913087 0-114.061938 51.148851-114.061938 114.061939 0 36.315684 16.879121 68.027972 42.965035 88.999001 2.045954 156.003996 128.895105 281.83017 284.8991 281.830169s283.364635-125.826174 284.899101-281.830169c26.085914-20.971029 42.965035-53.194805 42.965035-88.999001 2.045954-38.361638-17.390609-72.631369-47.056943-93.09091z"  horiz-adv-x="1024" />

    
    <glyph glyph-name="huo" unicode="&#58892;" d="M421.376-64S34.304 23.552 207.36 457.216c0 0 39.424-48.128 33.792-71.168 0 0 30.72 109.568 97.28 175.104 57.344 56.32 115.2 214.016 61.44 271.36 0 0 265.216-57.344 294.4-342.528 0 0 33.792 91.136 103.424 99.84 0 0-21.504-50.176 0-124.928 0 0 219.648-385.536-158.72-515.584 0 0 113.152 132.096-126.976 358.912 0 0-56.832-121.344-90.624-164.352 0-1.024-94.72-109.568 0-207.872z"  horiz-adv-x="1024" />

    
    <glyph glyph-name="xiala1" unicode="&#58626;" d="M919.8 514.9L555.2 116.20000000000005a57.377 57.377 0 0 0-43.1-19.5c-16.5 0-32.2 7.1-43.1 19.5L104.4 514.9c-17.8 18.8-23.3 46.2-14.1 70.4s31.4 41.1 57.2 43.4l728.9 0c25.9-2.2 48.2-19 57.4-43.29999999 9.3-24.3 3.8-51.6-14-70.50000001z"  horiz-adv-x="1024" />

    
    <glyph glyph-name="re" unicode="&#60331;" d="M793.006022 833.610044H230.993978c-92.732008 0-168.604022-75.872015-168.604022-168.604022v-562.013067c0-92.732008 75.872015-168.604022 168.604022-168.604023h562.013067c92.732008 0 168.604022 75.872015 168.604023 168.604023V665.006022c-0.001023 92.732008-75.873038 168.604022-168.605046 168.604022z m-533.939685-760.541632l-59.356876 24.958438c28.347628 31.023574 62.732763 83.629699 85.674265 128.827087l58.671261-14.846126c-22.255887-47.886637-55.296397-103.196337-84.98865-138.939399z m109.274776 236.069576c0-29.67895-6.065136-45.8697-24.945135-54.637387-19.566638-10.112312-49.25889-10.784624-92.425016-10.784624-2.003634 15.505136-10.099009 40.463574-18.194385 55.982012 29.006637-1.357927 57.984622-0.685615 65.422012-0.685615 9.44 0 12.129248 2.702552 12.129249 10.797927v84.302011l-95.086636-25.63075-14.160511 60.029188c30.351262 6.750751 68.111261 16.190751 109.247147 26.303062v90.38045h-95.086636v58.012252h95.086636V693.586964h58.012251v-90.38045h74.203003v-58.012252h-74.203003v-75.534323l74.203003 18.879999 6.723122-56.654324-80.926125-21.583575v-101.164051z m43.166125-229.318825c-0.685615 31.695886-5.406127 84.302011-13.501502 125.4512l58.69889 6.065136c8.095375-39.791262 15.505136-91.725074 16.190751-122.748649l-61.388139-8.767687z m161.194262 1.344624c-5.378497 32.368198-20.911262 84.987626-37.759998 125.4512l58.671261 10.112312c17.535375-39.118949 35.07075-90.38045 41.135885-122.748649l-62.047148-12.814863z m183.450149-8.767688c-15.505136 36.415374-51.92051 94.427626-84.302011 136.235825l55.323003 24.286126c32.353872-40.463574 70.800509-97.116875 87.676875-132.874264l-58.697867-27.647687z m0 169.96195c-81.612763-0.672312-80.926124 114.666576-78.236875 304.195164h-78.236876c-3.375887-50.589189-8.754385-95.099938-18.194384-134.218888 33.726126-20.911262 65.422012-42.493813 85.646636-58.684564l-31.695886-50.589188c-18.222013 15.518438-43.852764 34.398438-72.172763 54.637388-21.569248-50.589189-55.295374-89.708138-107.243513-120.058377-7.40976 14.846126-25.63075 36.429701-39.104623 46.542013 47.199998 26.975375 76.892251 61.373813 95.77225 106.571201-21.596877 13.488199-43.852764 26.975375-62.732763 38.446637l30.351262 43.166125c14.846126-8.095375 31.695886-17.548678 47.886637-28.334325 6.750751 30.351262 10.784624 64.077388 12.814863 102.523001h-82.957387V599.83165h84.987627c0.659009 29.67895 1.344624 61.373813 1.344624 95.772251h59.356876c-0.685615-33.726126-0.685615-66.094324-2.030239-95.772251h135.563512c-6.065136-198.296275-8.095375-302.836213 21.596877-302.836213 10.784624 0 15.505136 18.207687 17.535375 70.813812 12.815887-10.112312 33.726126-20.224624 47.886637-24.272823-6.064113-78.922491-23.599488-101.178377-68.137867-101.178377z"  horiz-adv-x="1024" />

    
    <glyph glyph-name="zhanghaoanquan1" unicode="&#58884;" d="M957.44 655.36L588.8 769.706667c-6.826667 1.706667-15.36 1.706667-23.893333 0L196.266667 655.36c-15.36-5.12-27.306667-20.48-27.306667-35.84v-197.973333c0-17.066667 3.413333-148.48 17.066667-184.32C274.773333 1.706667 416.426667-128 585.386667-128c228.693333 0 337.92 225.28 382.293333 360.106667 11.946667 35.84 17.066667 163.84 17.066667 187.733333V617.813333c0 17.066667-11.946667 32.426667-27.306667 37.546667zM723.626667 327.68H602.453333v-56.32h78.506667c13.653333 0 25.6-11.946667 25.6-25.6s-11.946667-25.6-25.6-25.6H602.453333v-49.493333c0-13.653333-11.946667-25.6-25.6-25.6s-25.6 11.946667-25.6 25.6v49.493333h-78.506666c-13.653333 0-25.6 11.946667-25.6 25.6s11.946667 25.6 25.6 25.6H551.253333v56.32h-121.173333c-13.653333 0-25.6 11.946667-25.6 25.6s11.946667 25.6 25.6 25.6h76.8l-66.56 76.8c-10.24 10.24-8.533333 27.306667 1.706667 35.84 10.24 10.24 27.306667 8.533333 37.546666-1.706667l95.573334-110.933333h1.706666l95.573334 110.933333c10.24 10.24 25.6 11.946667 37.546666 1.706667 10.24-10.24 11.946667-25.6 1.706667-35.84l-66.56-76.8H721.92c13.653333 0 25.6-11.946667 25.6-25.6 1.706667-13.653333-8.533333-25.6-23.893333-25.6zM496.64-80.213333c-186.026667 0-341.333333 139.946667-436.906667 392.533333C40.96 356.693333 39.253333 508.586667 39.253333 510.293333v204.8C39.253333 742.4 56.32 764.586667 81.92 773.12l385.706667 119.466667c11.946667 3.413333 23.893333 3.413333 35.84 0l384-119.466667c25.6-8.533333 42.666667-30.72 42.666666-58.026667v-206.506666c0-17.066667-3.413333-158.72-18.773333-201.386667-46.08-145.066667-163.84-387.413333-414.72-387.413333z m-10.24 935.253333c-1.706667 0-3.413333 0-6.826667-1.706667l-385.706666-119.466666c-8.533333-3.413333-13.653333-10.24-13.653334-18.773334v-204.8c0-23.893333 5.12-151.893333 17.066667-186.026666 88.746667-235.52 230.4-365.226667 399.36-365.226667C721.92-39.253333 831.146667 186.026667 875.52 320.853333c10.24 32.426667 15.36 160.426667 15.36 187.733334V715.093333c0 8.533333-5.12 15.36-13.653333 18.773334l-384 119.466666c-3.413333 1.706667-5.12 1.706667-6.826667 1.706667zM640 419.84H331.093333c-11.946667 0-20.48 8.533333-20.48 20.48s8.533333 20.48 20.48 20.48h308.906667c11.946667 0 20.48-8.533333 20.48-20.48s-8.533333-20.48-20.48-20.48zM486.4 230.4c-11.946667 0-20.48 8.533333-20.48 20.48v170.666667c0 11.946667 8.533333 20.48 20.48 20.48s20.48-8.533333 20.48-20.48v-170.666667c0-11.946667-10.24-20.48-20.48-20.48zM593.92 307.2H377.173333c-11.946667 0-20.48 8.533333-20.48 20.48s8.533333 20.48 20.48 20.48h216.746667c11.946667 0 20.48-8.533333 20.48-20.48s-8.533333-20.48-20.48-20.48zM472.746667 419.84c-5.12 0-11.946667 1.706667-15.36 6.826667l-109.226667 124.586666c-6.826667 8.533333-6.826667 22.186667 1.706667 29.013334 8.533333 6.826667 22.186667 6.826667 29.013333-1.706667l109.226667-124.586667c6.826667-8.533333 6.826667-22.186667-1.706667-29.013333-5.12-3.413333-10.24-5.12-13.653333-5.12zM500.053333 419.84c-5.12 0-10.24 1.706667-13.653333 5.12-8.533333 6.826667-8.533333 20.48-1.706667 29.013333l109.226667 124.586667c6.826667 8.533333 20.48 8.533333 29.013333 1.706667s8.533333-20.48 1.706667-29.013334l-109.226667-124.586666c-5.12-3.413333-10.24-6.826667-15.36-6.826667z"  horiz-adv-x="1024" />

    
    <glyph glyph-name="kefudianhuaicon" unicode="&#58936;" d="M60.235294 323.764706a451.764706 391.529412 0 1 1 903.529412 0 451.764706 391.529412 0 1 1-903.529412 0ZM512 896a512 512 0 1 1 0-1024 512 512 0 0 1 0 1024z m0-948.464941a436.464941 436.464941 0 1 0 0 872.929882 436.464941 436.464941 0 0 0 0-872.929882zM360.327529 584.463059c12.468706 13.854118 24.395294 13.854118 35.71953 0 4.517647-6.023529 12.589176-10.119529 18.010353-21.865412 5.421176-11.806118 35.538824-59.331765 35.538823-68.487529 2.349176-4.879059 3.975529-8.794353 4.939294-11.685647 1.746824-7.710118-0.602353-14.998588-6.927058-21.744942-13.793882-18.010353-16.444235-20.118588-13.251765-45.056 6.987294-28.190118 21.865412-53.428706 27.76847-60.596705 5.12-6.144 35.297882-44.272941 36.74353-44.272942 2.831059-2.770824 29.936941-29.876706 33.551059-31.924706 3.614118-2.048 18.191059-8.673882 24.69647-9.999058 6.625882-1.385412 27.587765 7.408941 29.093647 8.673882 1.566118 1.325176 19.094588 12.047059 19.094589 12.047059s10.601412 6.625882 22.528 0c11.866353-6.686118 23.973647-12.047059 55.536941-41.381647 17.046588-15.661176 27.105882-25.118118 30.298353-28.370824 10.661647-6.866824 12.830118-16.384 6.625882-28.672-8.011294-14.637176-18.251294-43.791059-59.030588-71.860706-18.130824-7.047529-47.585882-3.072-75.053177 7.228236-10.842353 5.300706-86.016 41.020235-120.591058 85.835294-23.612235 23.792941-94.328471 105.291294-106.676706 132.638117-11.565176 23.130353-64.210824 104.929882-57.103059 149.142589-1.385412 19.877647 9.276235 42.104471 19.154823 50.778353 8.071529 9.637647 8.131765 10.420706 15.420236 17.709176 4.879059 4.818824 12.830118 12.167529 23.913411 21.865412z"  horiz-adv-x="1024" />

    
    <glyph glyph-name="fasong1" unicode="&#58915;" d="M768.201011 384L128.201011 470.016C80.585011 569.856 41.161011 679.424 4.809011 784.384-14.134989 838.656 38.089011 890.88 89.289011 869.376c297.984-124.928 616.96-269.824 901.12-425.984 45.568-25.088 45.568-94.208 0-118.784-285.184-155.648-604.16-300.032-902.144-425.984-50.688-21.504-102.912 30.72-84.48 84.48C40.137011 88.576 79.561011 191.488 128.201011 291.84l640 92.16z"  horiz-adv-x="1024" />

    
    <glyph glyph-name="bangzhu" unicode="&#58893;" d="M341.303848 270.276278m-312.861861 0a312.861861 312.861861 0 1 1 625.723723 0 312.861861 312.861861 0 1 1-625.723723 0ZM433.285236-127.058286a42.662981 42.662981 0 0 0-17.7478 83.477233l191.4999 40.672042a42.662981 42.662981 0 1 0 17.747801-83.448791l-191.499901-40.672042zM412.408817 164.358317a42.662981 42.662981 0 0 0-42.975843-42.378561c-14.903601 0.113768-23.493082 3.526806-38.026937 11.319911a301.200646 301.200646 0 0 0-157.056654 210.157844c-18.771712 94.967796 8.219734 192.068741 72.669277 259.590019 33.675313 35.296506 76.025432 63.141212 123.637319 81.42941a403.136729 403.136729 0 0 0 144.229318 26.650142 381.321725 381.321725 0 0 0 165.333273-36.576396c53.982892-26.138186 98.409276-65.672549 127.846733-114.052369 53.38561-87.373785 60.723643-184.218752 19.283668-270.255764-16.496353-34.301037-39.64813-63.766936-71.190295-95.934823l-3.01485-3.128619c-2.730431-2.730431-5.688397-5.57463-11.234585-10.864839-18.117546-17.065192-25.256485-26.166628-25.370253-27.531844-5.29021-72.98214-39.136175-96.020149-118.603087-113.113784-9.30053-1.990939-12.400706-2.701989-17.776243-3.981878l-165.219504-35.865346a42.662981 42.662981 0 1 0-18.117546 83.391907l164.423129 35.694694c5.403978 1.279889 8.817016 2.019381 18.74327 4.180972 46.474207 9.983138 49.716594 12.201613 51.479997 35.950672 2.360685 31.968794 16.723889 50.285434 51.593765 83.050603 5.403978 5.204884 7.565569 7.252707 9.528066 9.215204l2.218475 2.275359c25.995976 26.536374 44.056638 49.489058 55.660969 73.664748 28.498871 59.159334 23.46464 125.429164-15.273347 188.854796-20.762651 34.130385-52.674561 62.572372-91.924504 81.543177a295.938879 295.938879 0 0 1-128.159595 28.157568c-39.249943-0.028442-78.016371-7.167381-113.824833-20.961745-36.035998-13.851248-67.69193-34.670783-92.550227-60.695201-44.995224-47.185257-64.165124-116.043308-50.683622-184.161868a216.159104 216.159104 0 0 1 117.692944-153.529848 16.211933 16.211933 0 0 1-5.688397 0.85326 42.662981 42.662981 0 0 0 42.321677-42.947401zM483.513785 896m42.662981 0l0 0q42.662981 0 42.662981-42.662981l0-56.883975q0-42.662981-42.662981-42.662981l0 0q-42.662981 0-42.662981 42.662981l0 56.883975q0 42.662981 42.662981 42.662981ZM1023.911545 526.254164m0-42.662981l0 0q0-42.662981-42.662981-42.662981l-56.883974 0q-42.662981 0-42.662981 42.662981l0 0q0 42.662981 42.662981 42.662981l56.883974 0q42.662981 0 42.662981-42.662981ZM142.209937 526.254164m0-42.662981l0 0q0-42.662981-42.662981-42.662981l-56.883975 0q-42.662981 0-42.662981 42.662981l0 0q0 42.662981 42.662981 42.662981l56.883975 0q42.662981 0 42.662981-42.662981ZM840.037134 810.686186m30.167283-30.167283l0 0q30.167283-30.167283 0-60.334566l-40.223044-40.223045q-30.167283-30.167283-60.334566 0l0 0q-30.167283 30.167283 0 60.334567l40.223044 40.223044q30.167283 30.167283 60.334566 0ZM174.105447 810.692432m-30.167283-30.167283l0 0q-30.167283-30.167283 0-60.334566l40.223044-40.223045q30.167283-30.167283 60.334567 0l0 0q30.167283 30.167283 0 60.334567l-40.223045 40.223044q-30.167283 30.167283-60.334566 0Z"  horiz-adv-x="1024" />

    
    <glyph glyph-name="shanghai" unicode="&#58885;" d="M905.9 25.2v61.5h-89.1v85h-76.6v-38h-74.8v-103h-1.8l-55.2 113.9c12.5 14.5 21.4 32.5 21.4 52.4 0 30.7-17.8 57.8-46.3 70.5V424.7c26.7 12.7 46.3 39.8 46.3 70.5 0 39.8-30.3 72.3-67.7 75.9v23.5c12.5 5.4 23.2 18.1 23.2 32.5 0 14.5-8.9 28.9-23.2 32.5V784.4h-23.2v-121.1c-16-3.6-26.7-18.1-26.7-34.3 0-16.3 10.7-30.7 26.7-34.3V573c-37.4-5.4-64.1-38-64.1-75.9 0-28.9 16-56 41-68.7v-160.9c-24.9-12.7-41-38-41-68.7 0-18.1 7.1-34.3 16-48.8L432 28.8h-21.4V164.4H291.3v77.7h-89.1v-108.5h-74.8v-108.5H68.6V-11h890.8v36.1h-53.5z"  horiz-adv-x="1024" />

    
    <glyph glyph-name="saoma" unicode="&#59004;" d="M121.624547 586.39871c13.824867 0 25.03314 11.207249 25.036209 25.036209v92.158956c0 25.52842 20.759813 46.307675 46.292326 46.307676h91.722004c13.670348 0.222057 24.636097 11.368932 24.636097 25.044396-0.004093 13.675464-10.972912 24.819269-24.64326 25.036209h-91.714841c-53.136198 0-96.372931-43.228547-96.372931-96.388281v-92.158956c0-6.641257 2.638083-13.011338 7.335058-17.708314a25.045419 25.045419 0 0 1 17.709338-7.327895zM284.667923 18.107659h-91.714841c-25.524327 0-46.292326 20.779256-46.292326 46.306652v87.98182c-0.221034 13.670348-11.364839 24.64019-25.040303 24.64019s-24.817222-10.968819-25.040302-24.64019v-87.98182c0-53.157687 43.228547-96.388281 96.364744-96.388281h91.722005a25.024953 25.024953 0 0 1 25.035186 25.043373 25.027 25.027 0 0 1-25.034163 25.038256zM902.381593 177.433364a25.024953 25.024953 0 0 1-25.039279-25.037233v-87.98182c0-25.527396-20.762883-46.306652-46.291303-46.306652h-89.147366a25.028023 25.028023 0 0 1-25.044396-25.044396c-0.008186-6.644327 2.629897-13.016455 7.326873-17.71343s11.073196-7.336082 17.717523-7.331989h89.147366c53.135174 0 96.364745 43.22957 96.364745 96.392374v87.985913a25.040303 25.040303 0 0 1-7.326872 17.705244 25.056676 25.056676 0 0 1-17.707291 7.331989zM831.049988 799.982156h-89.147366a25.056676 25.056676 0 0 1-17.71343-7.330966 25.03314 25.03314 0 0 1-7.330966-17.71343 25.01779 25.01779 0 0 1 7.330966-17.708314 25.03007 25.03007 0 0 1 17.71343-7.327895h89.147366c25.52842 0 46.291302-20.783349 46.291303-46.307676v-92.158956a25.015743 25.015743 0 0 1 25.039279-25.035186 25.019837 25.019837 0 0 1 25.037233 25.035186v92.158956c-0.00307 53.159734-43.233664 96.388281-96.367815 96.388281zM833.559135 358.207567H190.158433c-14.245446 0-25.793456 11.54801-25.793456 25.793456s11.54801 25.793456 25.793456 25.793456h643.400702c14.245446 0 25.793456-11.54801 25.793456-25.793456 0-14.246469-11.54801-25.793456-25.793456-25.793456z"  horiz-adv-x="1024" />

    
    <glyph glyph-name="shinshopxiaoxi" unicode="&#58897;" d="M878.5 761.9h-733c-45 0-81.5-36.5-81.5-81.5v-484.7c0-45 36.5-81.5 81.5-81.5h145.8l-1.2-1.2 82.8-83.1c15.9-16 36.8-23.9 57.7-23.9 20.9 0 41.8 8 57.7 23.9l82.8 83.1-1.2 1.2h308.7c45 0 81.5 36.5 81.5 81.5V680.4c-0.1 45-36.6 81.5-81.6 81.5z m30.6-566.1c0-16.8-13.7-30.5-30.5-30.5H569.9c-18.3 0-34.9-9.8-44-25.2l-73.7-74c-5.8-5.8-13.5-9-21.6-9-8.2 0-15.9 3.2-21.6 9l-73.7 74c-9 15.5-25.7 25.2-44 25.2H145.5c-16.8 0-30.5 13.7-30.5 30.5V680.4c0 16.8 13.7 30.5 30.5 30.5h733.1c16.8 0 30.5-13.7 30.5-30.5v-484.6zM715.6 518.4c0 14.1-11.4 25.5-25.5 25.5H210.6c-14.1 0-25.5-11.4-25.5-25.5s11.4-25.5 25.5-25.5h479.6c14 0 25.4 11.4 25.4 25.5zM811.3 519m-25.5 0a25.5 25.5 0 1 1 51 0 25.5 25.5 0 1 1-51 0ZM810.3 380.9H330.8c-14.1 0-25.5-11.4-25.5-25.5s11.4-25.5 25.5-25.5h479.6c14.1 0 25.5 11.4 25.5 25.5s-11.5 25.5-25.6 25.5zM209.6 356.1m-25.5 0a25.5 25.5 0 1 1 51 0 25.5 25.5 0 1 1-51 0Z"  horiz-adv-x="1024" />

    
    <glyph glyph-name="bangzhu1" unicode="&#58625;" d="M1001.83672215 384.19067215C1001.83672215 653.61040293 783.32645218 872.12067293 513.90672135 872.12067293c-96.09875748 0-185.52399014-27.83813212-261.0301567-75.88751089C420.28670171 521.28393923 517.52949199 212.01373164999995 551.85047681-102.21395152000002c251.68722197 19.44855806 449.98624535 229.75992612 449.98624534 486.40462367zM513.71604925-127.57334587000003c-136.71192286 0-265.22494377 53.19752647-361.89571767 149.86830034-96.6707739 96.6707739-149.86830035 225.18379479-149.86830035 361.89571768 0 136.71192286 53.19752647 265.22494377 149.86830035 361.89571764 96.6707739 96.6707739 225.18379479 149.86830035 361.89571767 149.86830033 136.71192286 0 265.22494377-53.19752647 361.89571764-149.86830033 96.6707739-96.6707739 149.86830035-225.18379479 149.86830034-361.89571764 0-136.71192286-53.19752647-265.22494377-149.86830034-361.89571768-96.48010174-96.6707739-225.18379479-149.86830035-361.89571764-149.86830034z m0 975.86000157c-255.88200899 0-464.09598355-208.21397453-464.09598355-464.09598355s208.21397453-464.09598355 464.09598355-464.09598356 464.09598355 208.21397453 464.09598353 464.09598356-208.02330241 464.09598355-464.09598353 464.09598355zM513.71604925 201.71743619999995c-13.15637753 0-23.83401723 10.67763971-23.83401725 23.83401725v44.61728025c0 48.24005088 28.60082068 91.33195403 74.5528059 112.11521705 45.57064094 20.78326305 73.79011734 66.35390398 71.88339599 116.50067625-2.28806565 62.54046123-55.10424785 115.35664339-117.64470906 117.64470905-33.74896841 1.33470498-65.59121541-10.86831185-89.80657693-34.13031267-24.21536151-23.26200082-37.56241116-54.72290355-37.56241115-88.28119983 0-13.15637753-10.67763971-23.83401723-23.83401724-23.83401725s-23.83401723 10.67763971-23.83401726 23.83401725c0 46.71467377 18.49519738 90.18792122 52.24416579 122.60218463 33.55829627 32.41426342 77.98490437 49.19341158 124.69957816 47.47736234 42.51988675-1.52537709 82.75170781-19.44855806 113.44992203-50.14677227s48.43072302-70.93003527 50.14677224-113.44992203c2.66940994-69.40465819-36.41837831-132.8984801-99.72152811-161.68997288-28.79149282-12.96570538-46.52400165-39.46913252-46.5240016-68.83264179v-44.61728024c-0.38134427-12.96570538-10.86831185-23.6433451-24.21536151-23.64334511zM513.71604925 60.62005420000003c-13.15637753 0-23.83401723 10.67763971-23.83401725 23.83401722v13.91906606c0 13.15637753 10.67763971 23.83401723 23.83401725 23.83401725s23.83401723-10.67763971 23.83401721-23.83401725v-13.91906606c0-13.15637753-10.48696758-23.83401723-23.83401721-23.83401722z"  horiz-adv-x="1024" />

    
    <glyph glyph-name="you" unicode="&#58956;" d="M755.7 377.4c0 0.7 0.1 1.4 0.1 2.1 0 0.8 0 1.6-0.1 2.4v0.6c-0.1 1.6-0.4 3.2-0.7 4.8 0 0.1-0.1 0.2-0.1 0.4-1.5 6.5-4.8 12.6-9.6 17.4L328.5 821.6c-14.2 13-36.1 12.5-49.8-1.1-13.6-13.6-14.1-35.5-1.1-49.8l391.2-391.3-381.6-381.6c-13.5-14.1-13.2-36.5 0.6-50.3 13.8-13.8 36.1-14.1 50.3-0.7l404.7 404.7c7.7 6.4 12.4 15.7 12.9 25.9z"  horiz-adv-x="1024" />

    
    <glyph glyph-name="icon-" unicode="&#58627;" d="M268.02606186-38.30899283999997a117.44211993 117.44211993 0 0 0-117.2812403 117.2812403V689.0277525399999A117.44211993 117.44211993 0 0 0 268.02606186 806.30899284h488.02831609a117.44211993 117.44211993 0 0 0 117.2812403-117.2812403v-609.97506528a117.44211993 117.44211993 0 0 0-117.2812403-117.28124029z m0 792.97562884a65.79976308 65.79976308 0 0 1-65.71932328-65.71932326v-609.97506528a65.79976308 65.79976308 0 0 1 65.71932328-65.71932326h488.02831609a65.79976308 65.79976308 0 0 1 65.71932328 65.71932326V689.0277525399999a65.79976308 65.79976308 0 0 1-65.71932328 65.71932326zM318.94446042 358.17882159a25.82117841 25.82117841 0 1 0 0 51.56191701h386.11107916a25.82117841 25.82117841 0 1 0 0-51.56191701zM318.94446042 236.23207242a25.82117841 25.82117841 0 1 0 0 51.24015779h263.44037172a25.82117841 25.82117841 0 1 0 0-51.64235684zM318.94446042 480.52776979a25.82117841 25.82117841 0 1 0 0 51.64235684h386.11107916a25.82117841 25.82117841 0 1 0 0-51.64235684z"  horiz-adv-x="1024" />

    
    <glyph glyph-name="zhuanfa" unicode="&#58898;" d="M1297.530527 351.212244c-32.074075-16.697261-513.781538-454.574413-551.776326-473.188452A42.595054 42.595054 0 0 0 681.52086-89.518777v228.352084A626.360265 626.360265 0 0 1 383.355484 128.397518c-181.454929-53.371602-383.355484-212.975269-383.355484-212.975268s32.798191 373.558621 212.975269 553.735698c142.267479 142.267479 374.027167 166.12071 468.545591 169.783884V856.772937a42.893219 42.893219 0 0 0 65.596382 32.627811c26.110768-13.204467 505.816263-449.718577 550.413285-472.506931a35.609465 35.609465 0 0 0 0-65.681573z"  horiz-adv-x="1321" />

    
    <glyph glyph-name="jianchagengxin1" unicode="&#58664;" d="M203.636 67.14200000000005L7.934 166.67399999999998l59.112 29.056c-24.384 57.636-38.106 120.876-38.106 187.394 0 266.774 216.26 483.032 483.034 483.032 85.498 0 165.668-22.426 235.332-61.396L698.44 755.898c-56.174 28.154-119.352 44.39-186.466 44.39-230.396 0-417.166-186.768-417.166-417.164 0-61.836 14.278-120.044 38.462-172.806l70.366-143.176z m297.358 535.544h21.954a10.98 10.98 0 0 0 10.978-10.98v-346.458l178.528 178.536a10.996 10.996 0 0 0 15.544 0l15.508-15.524a10.946 10.946 0 0 0 0-15.518L519.732 168.938a10.994 10.994 0 0 0-15.524 0L280.424 392.74a10.964 10.964 0 0 0 0 15.518l15.518 15.524a10.976 10.976 0 0 0 15.528 0l178.536-178.536v346.46a10.976 10.976 0 0 0 10.976 10.98h0.012z m10.978-636.726c230.378 0 417.158 186.78 417.158 417.164 0 61.818-14.276 120.046-38.458 172.79l-70.358 143.194L1016 599.576l-59.114-29.056c24.39-57.638 38.118-120.866 38.118-187.396 0-266.774-216.262-483.032-483.032-483.032-85.502 0-165.672 22.414-235.336 61.398l48.864 48.842c56.166-28.134 119.356-44.372 186.472-44.372z"  horiz-adv-x="1024" />

    
    <glyph glyph-name="shangla" unicode="&#59229;" d="M479.6 690.8L117.5 222.2c-13.2-17-10.2-41.5 6.8-54.7 6.9-5.3 15.3-8.2 24-8.2h724.3c21.6 0 39 17.5 39 39.1 0 8.6-2.9 17-8.1 23.8l-362 468.6c-13.2 17.1-37.7 20.2-54.8 7-2.7-2-5-4.3-7.1-7"  horiz-adv-x="1024" />

    
    <glyph glyph-name="gouxuan3" unicode="&#58995;" d="M514.133333-128C236.8-128 2.133333 96 2.133333 384S226.133333 896 514.133333 896s512-224 512-512-234.666667-512-512-512z m0 960C268.8 832 66.133333 629.333333 66.133333 384c0-245.333333 202.666667-448 448-448 245.333333 0 448 202.666667 448 448C972.8 618.666667 759.466667 832 514.133333 832zM450.133333 160c-10.666667 0-21.333333 0-32 10.666667L236.8 330.666667c-21.333333 10.666667-21.333333 42.666667 0 64 10.666667 21.333333 42.666667 21.333333 64 0l149.333333-138.666667 309.333334 288c21.333333 21.333333 42.666667 10.666667 64 0 21.333333-21.333333 10.666667-42.666667 0-64L471.466667 170.666667c0-10.666667-10.666667-10.666667-21.333334-10.666667z"  horiz-adv-x="1092" />

    
    <glyph glyph-name="yanjing" unicode="&#58656;" d="M512 686.596759c-201.731514 0-374.009206-125.476783-443.808922-302.596759 69.798692-177.119977 242.077408-302.596759 443.808922-302.596759 201.933105 0 374.010229 125.476783 443.808922 302.596759C886.009206 561.1199770000001 713.933105 686.596759 512 686.596759zM512 182.26848600000005c-111.355157 0-201.731514 90.375334-201.731514 201.731514s90.375334 201.731514 201.731514 201.731514 201.731514-90.375334 201.731514-201.731514S623.355157 182.26848600000005 512 182.26848600000005zM512 505.038704c-66.772776 0-121.038704-54.265928-121.038704-121.038704s54.265928-121.038704 121.038704-121.038704 121.038704 54.265928 121.038704 121.038704S578.772776 505.038704 512 505.038704z"  horiz-adv-x="1024" />

    
    <glyph glyph-name="paizhao" unicode="&#59108;" d="M946.176 693.248h-307.2l-38.912 73.728c-8.192 16.384-24.576 24.576-43.008 26.624H294.912c-18.432 0-34.816-10.24-43.008-26.624l-38.912-71.68H77.824C34.816 693.248 0 658.432 0 615.424v-563.2C0 9.216 34.816-25.6 77.824-25.6h870.4c43.008 0 77.824 34.816 77.824 77.824V615.424c-2.048 43.008-36.864 77.824-79.872 77.824z m26.624-641.024c0-14.336-12.288-24.576-24.576-24.576H77.824c-14.336 0-24.576 12.288-24.576 24.576V615.424c0 14.336 12.288 24.576 24.576 24.576h153.6c10.24 0 18.432 6.144 22.528 14.336l40.96 86.016h262.144l45.056-86.016c4.096-8.192 14.336-14.336 22.528-14.336h323.584c14.336 0 24.576-12.288 24.576-24.576v-563.2zM491.52 517.12c-112.64 0-204.8-92.16-204.8-204.8s92.16-204.8 204.8-204.8 204.8 92.16 204.8 204.8-92.16 204.8-204.8 204.8zM491.52 158.72c-83.968 0-153.6 69.632-153.6 153.6S405.504 465.92 491.52 465.92s153.6-69.632 153.6-153.6c0-86.016-69.632-153.6-153.6-153.6z m364.544 428.032c-28.672-2.048-49.152-24.576-49.152-53.248s24.576-49.152 53.248-49.152 49.152 24.576 49.152 53.248c0 12.288-6.144 24.576-16.384 34.816-8.192 10.24-22.528 14.336-36.864 14.336z"  horiz-adv-x="1026" />

    
    <glyph glyph-name="fenxiang" unicode="&#58886;" d="M64.012 383.975c0-247.41 200.59-447.964 448.008-447.964 247.416 0 447.968 200.554 447.968 447.964H1024C1024 101.213 794.785-128 512.02-128 229.26-128 0 101.213 0 383.975 0 666.731 229.26 896 512.02 896v-64.023c-247.418 0-448.008-200.588-448.008-448.002zM964.774 825.577v6.4h-6.4l6.4-6.4z m43.213-249.607h-31.992c-8.85 0-16.007 7.158-16.007 16.013V784.197L516.782 341.034c-6.589-6.627-17.274-6.627-23.92 0l-23.917 23.918c-6.578 6.59-6.578 17.286 0 23.908L912.122 831.983H719.99c-8.82 0-15.978 7.152-15.978 16.018v31.98C704.012 888.843 711.17 896 719.99 896h287.997C1016.842 896 1024 888.842 1024 879.982v-287.999c0-8.855-7.158-16.013-16.013-16.013z"  horiz-adv-x="1024" />

    
    <glyph glyph-name="guanbi" unicode="&#58628;" d="M512-120C233.6-120 8 105.60000000000002 8 384S233.6 888 512 888s504-225.6 504-504-225.6-504-504-504z m0 960C260.8 840 56 635.2 56 384s204.8-456 456-456 456 204.8 456 456S763.2 840 512 840zM548.8 384L744 579.2c9.6 9.6 9.6 25.6 0 36.8l-1.6 1.6c-9.6 9.6-25.6 9.6-35.2 0L512 420.8 316.8 616c-9.6 9.6-25.6 9.6-35.2 0l-1.6-1.6c-9.6-9.6-9.6-25.6 0-36.8L475.2 384 280 188.79999999999995c-9.6-9.6-9.6-25.6 0-36.8l1.6-1.6c9.6-9.6 25.6-9.6 35.2 0L512 347.20000000000005 707.2 152c9.6-9.6 25.6-9.6 35.2 0l1.6 1.6c9.6 9.6 9.6 25.6 0 36.8L548.8 384z"  horiz-adv-x="1024" />

    
    <glyph glyph-name="close" unicode="&#58640;" d="M512-53.396915079999985C270.39027547-53.396915079999985 74.60308492 142.39027547 74.60308492 384S270.39027547 821.39691508 512 821.39691508 949.39691508 625.60972453 949.39691508 384 753.60972453-53.396915079999985 512-53.396915079999985z m0 833.1369811C293.99582327 779.74006603 116.25993397 602.0041767299999 116.25993397 384S293.99582327-11.74006602999998 512-11.74006602999998 907.74006603 165.99582326999996 907.74006603 384 730.00417673 779.74006603 512 779.74006603zM543.93691762 384l169.40451948 169.40451948c8.3313698 8.3313698 8.3313698 22.21698617-1e-8 31.93691762l-1.38856163 1.38856164c-8.3313698 8.3313698-22.21698617 8.3313698-30.54835598 0L512 415.93691762 342.59548052 585.3414371c-8.3313698 8.3313698-22.21698617 8.3313698-30.54835598-1e-8l-1.38856163-1.38856163c-8.3313698-8.3313698-8.3313698-22.21698617 0-31.93691761L480.06308238 384 310.6585629 214.59548052000002c-8.3313698-8.3313698-8.3313698-22.21698617 1e-8-31.93691762l1.38856163-1.38856164c8.3313698-8.3313698 22.21698617-8.3313698 30.54835598 0L512 352.06308237999997l169.40451948-169.40451948c8.3313698-8.3313698 22.21698617-8.3313698 30.54835598 1e-8l1.38856163 1.38856163c8.3313698 8.3313698 8.3313698 22.21698617 0 31.93691761L543.93691762 384z"  horiz-adv-x="1024" />

    
    <glyph glyph-name="zan" unicode="&#58887;" d="M931.84 561.46c-39.936 10.444-133.837 10.24-271.258 13.926 6.554 30.003 7.988 57.036 7.988 104.96C668.672 795.034 585.114 896 511.18 896c-52.223 0-95.231-42.7-95.846-95.13-0.716-64.307-20.48-175.41-127.795-231.833-7.885-4.096-30.31-15.155-33.587-16.691l1.638-1.434a101.376 101.376 0 0 1-63.897 25.6H95.846A95.949 95.949 0 0 1 0 480.666V-30.72c0-52.838 43.008-95.846 95.846-95.846h95.847a94.72 94.72 0 0 1 85.299 55.193l1.434-0.41 7.68-2.047c0.512 0 0.819-0.103 1.433-0.308 18.432-4.608 53.863-13.004 129.536-30.412 16.384-3.687 101.99-22.016 190.874-22.016h174.694c53.248 0 92.672 19.865 114.381 61.644 21.3 37.07 125.542 236.032 125.44 516.506 0 40.346-27.955 91.853-90.624 109.773zM223.642-30.72c0-17.613-14.336-31.949-31.95-31.949H95.847a31.949 31.949 0 0 0-31.948 31.949V480.666c0 17.612 14.336 31.948 31.948 31.948h95.847c17.715 0 31.949-14.336 31.949-31.948V-30.72zM957.85 431.514c-13.312-321.024-117.146-466.33-117.146-466.33-9.728-17.408-25.19-27.853-58.163-27.853H607.949c-87.757 0-174.797 19.866-177.05 20.48-132.71 30.515-139.673 32.87-147.968 35.226l4.608 469.504c0 48.537 1.024 36.25 0 35.635C433.562 558.592 478.003 691.2 479.232 800.051A32.051 32.051 0 0 0 511.181 832c33.792 0 93.491-67.789 93.491-151.757 0-75.776-3.072-88.78-29.594-167.731 319.488 0 317.338-4.608 345.498-11.98 35.02-10.036 37.888-38.913 37.888-48.948 0-10.957-0.205-9.42-0.614-20.07z"  horiz-adv-x="1024" />

    
    <glyph glyph-name="gongyi2" unicode="&#58970;" d="M535.139297-127.991c-26.876764 0-55.086516 7.307936-86.164243 22.334804-22.265804 10.791905-96.74915 49.314567-141.214759 72.332364l-40.264646 20.797817c-13.147884 6.727941-21.822808 9.767914-28.139753 9.767914-5.874948 0-11.611898-2.492978-24.521784-10.655906l-68.849395-44.703607a16.825852 16.825852 0 0 0-9.219919-2.731976c-1.604986 0-3.209972 0.238998-4.780958 0.682994-4.746958 1.399988-8.639924 4.780958-10.654906 9.289918L1.832984 214.339991c-3.789967 8.469926-0.101999 18.407838 8.299927 22.300804l13.864878 6.419944c1.09199 0.512995 115.498985 53.754528 169.014515 74.826342 28.959745 11.4059 54.880518 16.938851 79.299303 16.938851 46.991587 0 79.709299-20.627819 111.367021-40.571643l6.727941-4.234963c17.655845-11.030903 66.184418-46.138594 86.197242-60.686467l0.136999-0.102999c6.761941-3.653968 22.7788-11.884896 43.474618-19.26083 3.721967 2.355979 8.434926 5.361953 13.044885 8.298927l5.429952 3.448969c19.227831 12.225893 23.974789 15.128867 25.682775 16.119859 13.864878 7.819931 33.365707 19.533828 57.95449 34.765694 28.41375 17.587845 61.676458 35.550688 93.232181 35.550688 18.509837 0 35.005692-5.770949 50.169559-17.621845 19.669827 11.133902 42.756624 16.939851 67.652405 16.939851 24.793782 0 46.958587-9.904913 60.857465-27.184761 0.819993-1.058991 1.639986-2.117981 2.390979-3.209972 17.655845 6.726941 34.287699 10.107911 49.553565 10.107911 27.729756 0 51.875544-11.508899 67.995402-32.409715 12.361891-16.118858 17.416847-34.252699 14.615872-52.558538-3.892966-25.783773-22.231805-49.553564-57.749493-74.689344-27.491758-19.36283-286.836479-191.041321-323.310158-212.044136-5.087955-2.936974-10.346909-6.215945-15.264866-9.322918C608.324653-109.071166 578.169918-127.991 535.139297-127.991zM239.149898 62.095329c17.10985 0 35.551688-5.395953 58.05749-17.00785l42.723624-22.061806c49.143568-25.408777 116.454976-60.174471 137.321793-70.283383 22.402803-10.893904 41.356637-16.152858 57.920491-16.152858 23.87179 0 41.117639 10.825905 62.974447 24.519785 5.054956 3.175972 11.269901 7.103938 17.451846 10.655906C651.014278-7.813056 906.602032 161.406456 933.820793 180.565288c28.652748 20.354821 30.940728 30.76973 31.043727 31.487723-0.102999 0.375997-0.579995 1.536986-1.946983 3.312971-2.32198 3.004974-6.624942 6.999938-17.04185 6.999939-9.561916 0-26.773765-3.41397-54.402522-19.669828l-30.70173-18.13484a16.922851 16.922851 0 0 0-8.605925-2.355979 17.06385 17.06385 0 0 0-9.937912 3.209971c-5.464952 3.960965-8.025929 10.791905-6.557943 17.382848l7.752932 34.833693c0.272998 1.195989 0.272998 1.980983 0.238998 2.32298-1.024991 1.023991-4.473961 2.799975-10.21091 2.799975-20.354821 0-35.995684-5.839949-47.84658-17.826843l-12.53289-12.737888a16.957851 16.957851 0 0 0-12.055894-5.054956c-0.340997 0-0.716994 0-1.05899 0.034a16.906851 16.906851 0 0 0-12.396891 6.625942l-10.825905 14.239875c-9.766914 12.909887-15.401865 15.436864-21.787809 15.436864-11.440899 0-29.984736-8.195928-58.364487-25.817773a2501.013018 2501.013018 0 0 0-35.790685-21.822808c30.462732-1.672985 52.661537-5.941948 69.907385-13.352883 30.838729-13.216884 46.479591-36.917676 46.479592-70.419381 0-22.403803-12.054894-41.529635-33.911702-53.789527-20.49082-11.473899-44.738607-14.889869-61.506459-15.742862-0.272998 0-0.545995-0.034-0.853993-0.033999l-159.486598-0.035c-57.98849 0-133.428827 30.053736-141.863753 33.468706a16.989851 16.989851 0 0 0-9.220919 9.11792c-1.741985 4.166963-1.775984 8.810923-0.068 12.977885l11.747897 28.652749a16.916851 16.916851 0 0 0 9.288918 9.254918c2.049982 0.819993 4.199963 1.229989 6.351945 1.229989 2.21998 0 4.473961-0.443996 6.556942-1.331988 1.604986-0.649994 70.829377-28.584749 117.17297-28.584749h158.15461c13.079885 0.750993 27.594757 4.678959 32.750712 7.922931-0.135999 3.687968-0.749993 4.405961-4.097964 6.317944-8.161928 4.712959-28.652748 10.313909-79.777299 10.31391-70.727378 0-138.688781 38.317663-146.201715 42.689624-0.340997 0.203998-0.716994 0.442996-1.05799 0.647995-0.477996 0.341997-1.399988 0.989991-6.249945 4.50796-15.675862 11.3379-63.384443 45.865597-78.957306 55.598511l-6.82994 4.302963c-28.311751 17.792844-48.734572 30.599731-77.114323 30.599731-15.91386 0-34.014701-4.063964-55.256514-12.430891-36.507679-14.446873-104.025086-45.079604-136.399801-59.935473l77.079322-171.098496s22.334804 14.479873 22.368804 14.514872c17.211849 10.825905 36.268681 20.899816 59.354478 20.899816zM516.56046 254.161641c-18.372839 0-35.755686 8.059929-47.709581 22.129806-31.930719 37.907667-74.859342 73.083358-116.352977 107.099058l-0.135999 0.101999c-47.436583 38.829659-96.477152 79.025305-133.668825 125.778895-43.029622 54.129524-63.930438 109.933034-63.930438 170.6195 0 61.233462 21.549811 116.488976 60.686466 155.558633C254.620762 874.485189 309.947276 896 371.316736 896c48.801571 0 99.072129-21.822808 146.098716-63.282444C564.545038 874.177192 614.882596 896 663.718167 896c61.336461 0 116.694974-21.514811 155.79863-60.549468 39.136656-39.069657 60.686467-94.292171 60.686467-155.559633 0-60.686467-20.899816-116.488976-63.862439-170.551501-37.088674-46.68459-85.856245-86.607239-133.018831-125.232899l-0.785993-0.647994c-41.459636-34.014701-84.353259-69.156392-116.523976-107.167058-11.816896-14.035877-29.199743-22.163805-47.675581-22.163806h-1.775984zM371.316736 831.215569c-89.305215 0-151.699667-62.224453-151.699666-151.29067 0-103.888087 88.007226-175.981453 173.112478-245.649841 43.815615-35.926684 89.100217-73.015358 124.719904-114.986989 36.234682 42.483627 81.246286 79.333303 124.822903 114.952989C727.410607 503.943446 815.418833 576.002812 815.418833 679.924899 815.382834 768.991116 753.023382 831.215569 663.718167 831.215569c-52.148542 0-99.379127-41.220638-122.87592-65.775422l-11.166902-11.679897a16.922851 16.922851 0 0 0-12.226893-5.224954c-4.609959 0-9.015921 1.877983-12.225892 5.224954l-11.201902 11.679897c-23.529793 24.554784-70.726378 65.775422-122.704922 65.775422z"  horiz-adv-x="1029" />

    
    <glyph glyph-name="sousuo" unicode="&#58715;" d="M1011.511167-65.633554l-148.382406 123.61137a513.413851 513.413851 0 0 1 74.410632 128.194987c25.307417 62.902827 38.131791 129.706605 38.131791 198.509619 0 68.803015-12.824375 135.606793-38.131791 198.50962a511.463375 511.463375 0 0 1-104.155379 162.474589 486.497292 486.497292 0 0 1-155.062784 109.909281A465.578445 465.578445 0 0 1 487.954845 895.999512a465.627207 465.627207 0 0 1-190.415148-40.4236 486.497292 486.497292 0 0 1-155.062783-109.909281A511.463375 511.463375 0 0 1 38.321535 583.192042 529.407748 529.407748 0 0 1 0.189744 384.682422c0-68.803015 12.824375-135.606793 38.131791-198.509619a511.999756 511.999756 0 0 1 104.155379-162.47459 485.570816 485.570816 0 0 1 155.062783-109.860519c60.318447-26.819035 124.342798-40.4236 190.415148-40.423599a465.578445 465.578445 0 0 1 190.366385 40.423599 483.961674 483.961674 0 0 1 137.362221 92.159956l151.064309-125.903178a34.913507 34.913507 0 0 1 49.347024 4.632379 35.352364 35.352364 0 0 1-4.583617 49.639595z m-523.556322 9.508567c-230.302366 0-417.645515 197.72943-417.645516 440.807409 0 243.077979 187.343149 440.807409 417.645516 440.80741 230.253605 0 417.596753-197.72943 417.596753-440.80741 0-243.077979-187.343149-440.807409-417.596753-440.807409z"  horiz-adv-x="1024" />

    
    <glyph glyph-name="weinituijianx" unicode="&#59119;" d="M512-128C229.2224-128 0 101.2224 0 384S229.2224 896 512 896s512-229.2224 512-512-229.2224-512-512-512z m242.688 586.2912h-154.8288C659.84 679.8848 558.5152 691.2 558.5152 691.2c-42.9824 0-34.048-33.9712-37.2992-39.6288 0-108.3648-115.0976-193.28-115.0976-193.28v-307.328c0-30.3104 41.344-41.216 57.5488-41.216H696.32c21.888 0 39.7312 57.3952 39.7312 57.3952C793.6 362.8544 793.6 421.12 793.6 421.12c0 40.448-38.912 37.1968-38.912 37.1968z m-412.1088-0.1024H249.856c-19.1488 0-19.456-18.816-19.456-18.816l19.1488-309.9392c0-19.712 19.7632-19.712 19.7632-19.712h80.256c16.7168 0 16.5632 13.056 16.5632 13.056V434.688c0 23.808-23.552 23.5008-23.552 23.5008z"  horiz-adv-x="1024" />

    
    <glyph glyph-name="guanbi1" unicode="&#58980;" d="M512-53.397C270.39-53.397 74.603 142.39 74.603 384S270.39 821.397 512 821.397 949.397 625.61 949.397 384 753.61-53.397 512-53.397z m0 833.137c-218.004 0-395.74-177.736-395.74-395.74S293.996-11.74 512-11.74 907.74 165.996 907.74 384 730.004 779.74 512 779.74zM543.937 384L713.34 553.405c8.332 8.33 8.332 22.217 0 31.936l-1.388 1.389c-8.331 8.331-22.217 8.331-30.548 0L512 415.937 342.595 585.34c-8.33 8.332-22.217 8.332-30.548 0l-1.388-1.388c-8.332-8.331-8.332-22.217 0-31.937L480.063 384 310.66 214.595c-8.332-8.33-8.332-22.217 0-31.936l1.388-1.389c8.331-8.331 22.217-8.331 30.548 0L512 352.063 681.405 182.66c8.33-8.332 22.217-8.332 30.548 0l1.388 1.388c8.332 8.331 8.332 22.217 0 31.937L543.937 384z"  horiz-adv-x="1024" />

    
    <glyph glyph-name="qianbao" unicode="&#58899;" d="M784 768H240c-88 0-160-72-160-160v-448c0-88 72-160 160-160h544c88 0 160 72 160 160V608c0 88-72 160-160 160z m96-480H592c-52.8 0-96 43.2-96 96s43.2 96 96 96h288v-192zM592 544c-88 0-160-72-160-160s72-160 160-160h288v-64c0-52.8-43.2-96-96-96H240c-52.8 0-96 43.2-96 96V608c0 52.8 43.2 96 96 96h544c52.8 0 96-43.2 96-96v-64H592zM560 384a32 32 0 1 1 64 0 32 32 0 1 1-64 0z"  horiz-adv-x="1024" />

    
    <glyph glyph-name="tongzhi2" unicode="&#59013;" d="M517.302044 384m-512 0a512 512 0 1 1 1024 0 512 512 0 1 1-1024 0ZM582.974578 239.297422c-0.341333 0-0.682667 0-1.024-0.045511h-115.666489l-1.024 0.045511a15.177956 15.177956 0 0 1-15.177956-15.177955 74.092089 74.092089 0 0 1 74.023823-74.023823 74.092089 74.092089 0 0 1 74.023822 74.023823 15.1552 15.1552 0 0 1-15.1552 15.177955zM726.038756 313.480533a134.189511 134.189511 0 0 0-38.365867 45.442845c-1.046756 1.979733-1.956978 4.027733-2.912711 6.075733-1.479111 3.208533-2.958222 6.417067-4.187022 9.716622-0.273067 0.728178-0.477867 1.501867-0.750934 2.2528a134.280533 134.280533 0 0 0-7.623111 44.2368v79.6672a145.521778 145.521778 0 0 1-15.36 65.353956 149.481244 149.481244 0 0 1-30.196622 40.937244c-2.8672 2.844444-5.916444 5.370311-8.965689 7.964445-0.6144 0.500622-1.160533 1.092267-1.797689 1.592889-0.136533 0.113778-0.295822 0.091022-0.432355 0.182044-16.566044 13.425778-35.544178 23.438222-56.137956 28.307911-44.8512 10.558578-90.953956 0.477867-126.589156-27.739022a149.959111 149.959111 0 0 1-40.96-50.494578 145.521778 145.521778 0 0 1-15.36-65.353955v-79.6672a135.213511 135.213511 0 0 0-53.816888-107.702045 26.578489 26.578489 0 0 1-9.398045-30.151111c3.709156-11.218489 13.767111-18.454756 25.6-18.454755h175.877689c1.206044-0.341333 110.091378-0.750933 195.151644-0.750934 11.832889 0 21.9136 7.213511 25.6 18.454756a26.510222 26.510222 0 0 1-9.375288 30.128355zM485.626311 663.506489a31.675733 31.675733 0 1 1 63.328711 0 31.675733 31.675733 0 0 1-63.328711 0z"  horiz-adv-x="1029" />

    
    <glyph glyph-name="navicon" unicode="&#58945;" d="M38.5536 37.1712v66.0992h946.944v-66.0992H38.5536z m0 330.2912V433.5616H856.064v-66.0992H38.5536z m0 330.3424v66.048h946.944v-66.0992H38.5536z"  horiz-adv-x="1024" />

    
    <glyph glyph-name="lajitong" unicode="&#58900;" d="M391.168 131.072c-17.92 0-31.744 14.336-31.744 31.744V399.36c0 17.92 14.336 31.744 31.744 31.744s31.744-14.336 31.744-31.744v-236.032c0-17.92-14.336-32.256-31.744-32.256z m134.144 0c-17.92 0-31.744 14.336-31.744 31.744V399.36c0 17.92 14.336 31.744 31.744 31.744 17.92 0 31.744-14.336 31.744-31.744v-236.032c0-17.92-14.336-32.256-31.744-32.256z m134.144 0c-17.92 0-31.744 14.336-31.744 31.744V399.36c0 17.92 14.336 31.744 31.744 31.744 17.92 0 31.744-14.336 31.744-31.744v-236.032c0-17.92-14.336-32.256-31.744-32.256zM158.72 604.672h719.872v-64H158.72V604.672zM758.784 551.424V71.68c0-35.328-28.672-64-64-64H343.04c-35.328 0-64 28.672-64 64V420.352h-0.512V551.424H215.04v-480.256c0-70.656 57.344-128 128-128h351.744c70.656 0 128 57.344 128 128V551.424h-64z m-343.552 179.2c3.584 16.896 18.432 29.696 36.352 29.696h134.144c17.92 0 33.28-12.8 36.352-29.696h64.512c-4.096 52.224-47.616 93.696-101.376 93.696h-133.12c-53.248 0-97.28-41.472-101.376-93.696h64.512zM784.896 733.184H252.928c-70.656 0-128-57.344-128-128v-35.84h64v35.84c0 35.328 28.672 64 64 64h531.968c35.328 0 64-28.672 64-64v-35.84h64v35.84c0 70.656-57.344 128-128 128z"  horiz-adv-x="1024" />

    
    <glyph glyph-name="diancai1-copy" unicode="&#58636;" d="M884.875894 472.856747L646.970506 472.856747c92.185562 340.464205-63.516616 357.853247-63.516616 357.853247-65.993017 0-52.312436-52.18247599-57.3031-60.881602 0-166.502152-176.849824-296.971645-176.849824-296.971645l1e-8-472.171899c0-46.607504 63.516616-63.393819 88.43309799-63.393819l357.452111 0c33.641191 0 61.036122 88.224344 61.036122 88.224344 88.43412199 300.70569 88.434122 390.177444 88.43412199 390.177444C944.657442 477.820805 884.875894 472.856747 884.875894 472.856747L884.875894 472.856747 884.875894 472.856747zM884.875894 472.856747M251.671415 472.700181L109.214912 472.700181c-29.420053 0-29.873378-28.89612-29.873378-28.89612l29.420053-476.202703c0-30.30930601 30.36149501-30.309306 30.36149499-30.309306L262.42022301-62.70794799999999c25.68600901 0 25.458835 20.049638 25.458835 20.049638L287.87905801 436.588729C287.879058 473.162716 251.671415 472.700181 251.671415 472.700181L251.671415 472.700181 251.671415 472.700181zM251.671415 472.700181"  horiz-adv-x="1024" />

    
    <glyph glyph-name="qingkonghuancun" unicode="&#58922;" d="M912.697224 762.723388H112.049694A45.742682 45.742682 0 0 1 66.258824 716.944565v-99.761694c0-25.322918 20.467953-45.790871 45.778823-45.790871h43.754918v-478.605553c0-118.940612 96.436706-215.377318 215.377317-215.377318h277.540142c118.952659 0 215.389365 96.436706 215.389364 215.377318V571.259482h47.826824c25.334965 0 45.790871 20.467953 45.79087 45.790871v99.761694c0.771012 25.455435-19.817412 45.911341-45.019858 45.911341z m-516.457412-650.107482a57.344 57.344 0 0 0-57.42833-57.42833c-31.466918 0-57.428329 25.961412-57.428329 57.42833V437.356424c0 31.454871 25.961412 57.416282 57.428329 57.416282a57.344 57.344 0 0 0 57.42833-57.416282v-324.740518z m173.17647 0a57.344 57.344 0 0 0-57.428329-57.42833 57.344 57.344 0 0 0-57.428329 57.42833V437.356424c0 31.454871 25.961412 57.416282 57.428329 57.416282a57.344 57.344 0 0 0 57.428329-57.416282v-324.740518z m173.176471 0a57.344 57.344 0 0 0-57.428329-57.42833 57.344 57.344 0 0 0-57.42833 57.42833V437.356424c0 31.454871 25.961412 57.416282 57.42833 57.416282a57.344 57.344 0 0 0 57.428329-57.416282v-324.740518zM566.729788 896h-109.351153c-51.922824 0-94.388706-41.056376-97.0752-92.340706H663.792941C661.756988 855.076141 619.423624 896 566.729788 896z"  horiz-adv-x="1024" />

    
    <glyph glyph-name="zan1" unicode="&#58930;" d="M931.84 561.46c-39.936 10.444-133.837 10.24-271.258 13.926 6.554 30.003 7.988 57.036 7.988 104.96C668.672 795.034 585.114 896 511.18 896c-52.223 0-95.231-42.7-95.846-95.13-0.716-64.307-20.48-175.41-127.795-231.833-7.885-4.096-30.31-15.155-33.587-16.691l1.638-1.434a101.376 101.376 0 0 1-63.897 25.6H95.846A95.949 95.949 0 0 1 0 480.666V-30.720000000000027c0-52.838 43.008-95.846 95.846-95.846h95.847a94.72 94.72 0 0 1 85.299 55.193l1.434-0.41 7.68-2.047c0.512 0 0.819-0.103 1.433-0.308 18.432-4.608 53.863-13.004 129.536-30.412 16.384-3.687 101.99-22.016 190.874-22.016h174.694c53.248 0 92.672 19.865 114.381 61.644 21.3 37.07 125.542 236.032 125.44 516.506 0 40.346-27.955 91.853-90.624 109.773zM223.642-30.720000000000027c0-17.613-14.336-31.949-31.95-31.949H95.847a31.949 31.949 0 0 0-31.948 31.949V480.666c0 17.612 14.336 31.948 31.948 31.948h95.847c17.715 0 31.949-14.336 31.949-31.948V-30.720000000000027zM957.85 431.514c-13.312-321.024-117.146-466.33-117.146-466.33-9.728-17.408-25.19-27.853-58.163-27.853H607.949c-87.757 0-174.797 19.866-177.05 20.48-132.71 30.515-139.673 32.87-147.968 35.226l4.608 469.504c0 48.537 1.024 36.25 0 35.635C433.562 558.592 478.003 691.2 479.232 800.051A32.051 32.051 0 0 0 511.181 832c33.792 0 93.491-67.789 93.491-151.757 0-75.776-3.072-88.78-29.594-167.731 319.488 0 317.338-4.608 345.498-11.98 35.02-10.036 37.888-38.913 37.888-48.948 0-10.957-0.205-9.42-0.614-20.07z"  horiz-adv-x="1024" />

    
    <glyph glyph-name="renzheng" unicode="&#58908;" d="M945.935059 456.041412l-94.629647 94.569412V696.621176c0 40.357647-32.707765 72.824471-73.125647 73.125648H631.868235L537.6 864.316235a73.005176 73.005176 0 0 1-103.303529 0l-94.569412-94.569411H193.716706c-40.417882 0-72.884706-32.707765-73.185882-73.125648v-146.251294L26.021647 456.041412a73.005176 73.005176 0 0 1 0-103.30353l94.569412-94.569411v-146.31153c0-40.357647 32.768-72.824471 73.185882-73.125647h146.251294l94.569412-94.569412c28.611765-28.611765 74.752-28.611765 103.303529 0l94.629648 94.569412h146.251294c40.417882 0 72.884706 32.707765 73.125647 73.125647V258.108235l94.629647 94.629647a74.149647 74.149647 0 0 1-0.602353 103.30353z m-459.956706-307.260236L266.842353 550.671059h109.628235L486.339765 331.595294l109.68847 219.075765h109.688471l-219.678118-401.889883z"  horiz-adv-x="1024" />

    
    <glyph glyph-name="buxuanzhong" unicode="&#58965;" d="M511.909684-104.156641c268.237784 0 486.440642 218.202858 486.440642 486.440642S780.147469 868.724643 511.909684 868.724643 25.469042 650.521785 25.469042 382.284001s218.383489-486.440642 486.440642-486.440642M511.909684-113.188217c-273.114835 0-495.472217 222.176751-495.472217 495.472218s222.176751 495.472217 495.472217 495.472217 495.472217-222.176751 495.472218-495.472217-222.176751-495.472217-495.472218-495.472218z m0 972.881285c-263.180102 0-477.409067-214.228965-477.409067-477.409067s214.228965-477.409067 477.409067-477.409067S989.318751 118.923267 989.318751 382.284001 775.270418 859.693068 511.909684 859.693068z"  horiz-adv-x="1024" />

    
    <glyph glyph-name="quanquan" unicode="&#58914;" d="M512-89.341414c-63.870707 0-125.931313 12.541414-184.242424 37.236363-56.371717 23.789899-106.925253 57.923232-150.49697 101.365657-43.442424 43.442424-77.575758 94.125253-101.365657 150.49697-24.694949 58.311111-37.236364 120.371717-37.236363 184.242424 0 63.870707 12.541414 125.931313 37.236363 184.242424 23.789899 56.371717 57.923232 106.925253 101.365657 150.49697 43.442424 43.442424 94.125253 77.575758 150.49697 101.365657C386.068687 844.670707 448.129293 857.212121 512 857.212121c63.870707 0 125.931313-12.541414 184.242424-37.236363 56.371717-23.789899 106.925253-57.923232 150.49697-101.365657 43.442424-43.442424 77.575758-94.125253 101.365657-150.49697 24.694949-58.311111 37.236364-120.371717 37.236363-184.242424 0-63.870707-12.541414-125.931313-37.236363-184.242424-23.789899-56.371717-57.923232-106.925253-101.365657-150.49697-43.442424-43.442424-94.125253-77.575758-150.49697-101.365656-58.311111-24.565657-120.371717-37.107071-184.242424-37.107071z m0 921.341414C264.921212 832 63.870707 630.949495 63.870707 383.870707c0-247.078788 201.050505-448.129293 448.129293-448.129293 247.078788 0 448.129293 201.050505 448.129293 448.129293C960.129293 630.949495 759.078788 832 512 832z"  horiz-adv-x="1024" />

    
    <glyph glyph-name="shezhi" unicode="&#58981;" d="M783.573333 811.733333l234.666667-406.4a42.666667 42.666667 0 0 0 0-42.666666l-234.666667-406.4a42.666667 42.666667 0 0 0-36.906666-21.333334H277.333333a42.666667 42.666667 0 0 0-36.906666 21.333334L5.76 362.666667a42.666667 42.666667 0 0 0 0 42.666666l234.666667 406.4a42.666667 42.666667 0 0 0 36.906666 21.333334h469.333334a42.666667 42.666667 0 0 0 36.906666-21.333334z m-61.653333-791.466666L932.053333 384 722.133333 747.733333h-420.266666L91.946667 384l209.92-363.733333h420.053333zM512 597.333333a213.333333 213.333333 0 0 0 213.333333-213.333333c0-117.824-95.509333-213.333333-213.333333-213.333333s-213.333333 95.509333-213.333333 213.333333 95.509333 213.333333 213.333333 213.333333z m90.453333-303.786666a128 128 0 1 1-180.906666 181.12 128 128 0 0 1 180.906666-181.12z"  horiz-adv-x="1024" />

    
    <glyph glyph-name="shangchuantupian1" unicode="&#59055;" d="M335.925 439.883c-64.821 0-117.356 48.204-117.356 107.67 0 59.388 52.535 107.512 117.357 107.512 64.743 0 117.357-48.124 117.357-107.512 0-59.466-52.614-107.592-117.357-107.592z m799.133-26.149h-0.078V537.786h56.708v-579.697c0-47.495-50.723-86.089-113.418-86.089H113.42C50.96-128 0-89.485 0-41.99V689.564c0 47.493 50.881 85.851 113.42 85.851h772.037v-43.005H112.396c-30.718 0-55.607-18.903-55.607-42.138V60.48l318.755 241.726L533.858 182.09 987.22 525.735l147.839-112.08zM112.395-84.996h693.668L375.543 241.4 56.789-0.404v-42.531c0-23.315 24.89-42.14 55.608-42.14z m1022.663 42.14h0.08V352.929l-147.762 112.08-413.27-313.4 312.217-236.683h193.128c30.718 0 55.607 18.903 55.607 42.139z m101.841 808.347c12.839 0 23.314-9.61 23.314-21.424s-10.476-21.423-23.314-21.423h-118.933v-108.93c0-11.815-10.475-21.423-23.313-21.423-12.84 0-23.315 9.61-23.315 21.423v108.93H952.406c-12.839 0-23.314 9.61-23.314 21.423 0 11.815 10.475 21.345 23.314 21.345h118.932V874.657c0 11.815 10.476 21.345 23.315 21.345s23.313-9.61 23.313-21.345V765.57h118.933z"  horiz-adv-x="1260" />

    
    <glyph glyph-name="zuo" unicode="&#59046;" d="M681.8 814.1c22.8 0 41.9-19.1 41.9-41.9 0-10.3-4.4-19.9-10.3-27.2l0.7-0.7-2.2-2.2L367.1 395c-5.9-5.9-5.9-16.2 0-22.1l346.3-349.2-0.7-0.7c6.6-7.4 10.3-16.9 10.3-27.2 0-23.5-18.4-41.9-41.9-41.9-14.7 0-27.2 8.1-34.6 19.9-1.5 0.7-2.9 0.7-3.7 1.5L248.7 373c-5.9 5.9-5.9 16.2 0 22.1l394.8 398.5c1.5 1.5 2.9 1.5 4.4 2.2 7.4 10.2 19.9 18.3 33.9 18.3z"  horiz-adv-x="1024" />

    


  </font>
</defs>
</svg>
